<svg width="28" height="28" viewBox="0 0 28 28" fill="none" xmlns="http://www.w3.org/2000/svg">
<path d="M23.625 3.49995C23.8571 3.49995 24.0796 3.59213 24.2437 3.75623C24.4078 3.92032 24.5 4.14288 24.5 4.37494L24.5 23.6249C24.5006 23.7791 24.4605 23.9307 24.3836 24.0644C24.3068 24.1981 24.196 24.3091 24.0625 24.3862C23.9295 24.463 23.7786 24.5034 23.625 24.5034C23.4714 24.5034 23.3205 24.463 23.1875 24.3862L6.5625 14.7612C6.42784 14.6849 6.31583 14.5742 6.2379 14.4405C6.15997 14.3067 6.11892 14.1547 6.11892 13.9999C6.11892 13.8452 6.15997 13.6932 6.2379 13.5594C6.31583 13.4257 6.42784 13.315 6.5625 13.2387L23.1875 3.6137C23.3208 3.53811 23.4717 3.49889 23.625 3.49995ZM22.75 22.1112L22.75 5.88869L8.75 13.9999L22.75 22.1112ZM3.5 24.4999L1.75 24.4999L1.75 3.49995L3.5 3.49995L3.5 24.4999Z" fill="white"/>
</svg>
