<svg width="99" height="133" viewBox="0 0 99 133" fill="none" xmlns="http://www.w3.org/2000/svg">
<path d="M97.3661 131.439C96.9389 131.436 96.8306 131.439 96.5623 131.437C55.1575 131.146 21.6633 97.1584 21.8989 55.6737C21.963 40.816 26.4421 26.3199 34.765 14.0339C36.4559 11.5377 40.2004 5.08406 40.2004 5.08406C27.7155 18.9588 20.7666 36.9569 20.6774 55.6501C20.4379 97.8067 54.4779 132.351 96.5575 132.646C96.8251 132.648 97.0923 132.649 97.3592 132.648C98.534 132.644 98.0081 131.221 97.3661 131.439Z" fill="#C08A00"/>
<path d="M58.0537 94.7007C56.5364 94.0951 54.8783 93.8224 53.4675 94.7755C52.2475 95.5929 51.4648 96.9014 50.9999 98.2677C49.9139 101.453 50.5357 104.794 51.725 107.858C53.4092 112.18 59.8668 119.193 59.9907 119.179C60.0322 120.157 59.4939 120.915 59.6165 121.892C59.6696 122.32 60.9498 122.543 60.8967 122.115C60.49 118.995 60.5367 115.833 61.0355 112.728C61.5112 109.831 62.6353 107.083 63.0448 104.182C63.6017 100.154 61.9877 96.2649 58.0537 94.7007ZM61.0943 97.8722C61.0794 97.8745 61.0652 97.8801 61.0528 97.8887C61.0405 97.8973 61.0302 97.9086 61.0229 97.9218C61.0156 97.935 61.0114 97.9496 61.0107 97.9647C61.01 97.9798 61.0127 97.9948 61.0187 98.0087C62.7079 101.457 61.4897 104.956 60.4131 108.358C60.5071 107.609 60.5733 106.861 60.6032 106.104C60.729 102.639 60.1844 99.1819 58.9993 95.9229C59.1973 96.0463 59.3952 96.1782 59.5845 96.3208C60.1627 96.7556 60.6718 97.2758 61.0943 97.8637L61.0943 97.8722ZM56.7731 113.706C56.8677 113.849 56.9652 113.992 57.0654 114.136C56.9677 114.037 56.8743 113.935 56.7788 113.834C56.7874 113.824 56.7932 113.811 56.7956 113.798C56.7979 113.784 56.7967 113.77 56.792 113.757L56.7731 113.706ZM58.9761 116.548C58.9467 116.407 58.9247 116.264 58.9102 116.12C58.9858 116.358 59.0592 116.594 59.139 116.828C59.0947 116.735 59.0333 116.641 58.9761 116.548ZM58.7021 115.919C58.7021 115.919 58.7021 115.909 58.7022 115.902L58.7021 115.919ZM58.5039 115.828C58.4552 115.755 58.4023 115.682 58.3514 115.613L58.4895 115.734C58.4937 115.755 58.4999 115.789 58.504 115.822L58.5039 115.828ZM58.6971 115.658L58.6589 115.626C58.6301 115.427 58.6013 115.229 58.5768 115.03C58.6187 115.176 58.6585 115.324 58.7004 115.459C58.6979 115.528 58.6975 115.59 58.6972 115.652L58.6971 115.658ZM58.4421 115.442C58.2295 115.263 58.0319 115.082 57.8322 114.897L57.8004 114.851C57.3009 114.171 56.8482 113.457 56.4455 112.715C54.6539 106.991 54.1771 100.936 55.051 95.0049C55.1323 94.9884 55.2114 94.9761 55.2948 94.9638C55.5808 99.042 56.1055 103.1 56.8661 107.117C57.2804 109.376 57.6945 111.677 58.2819 113.928C58.3154 114.423 58.3702 114.928 58.4421 115.432L58.4421 115.442ZM57.6777 115.009C57.9871 115.439 58.2945 115.856 58.5803 116.299C58.601 116.419 58.6152 116.539 58.6381 116.659C58.6425 116.677 58.6519 116.692 58.6651 116.705C58.6784 116.717 58.6949 116.725 58.7126 116.727C58.7302 116.73 58.7484 116.728 58.7647 116.721C58.781 116.713 58.7949 116.701 58.8045 116.686C58.8361 116.824 58.876 116.96 58.9239 117.094C56.8025 114.549 54.4927 112.08 53.0079 109.134C54.2633 111.312 55.8375 113.289 57.6778 115L57.6777 115.009ZM59.1656 116.284L59.2039 116.314C59.2037 116.351 59.2035 116.385 59.2033 116.421C59.1886 116.368 59.174 116.321 59.1593 116.276L59.1656 116.284ZM59.0586 115.952C59.004 115.778 58.9474 115.604 58.8971 115.428C58.9478 114.682 59.0875 113.944 59.3133 113.231C59.2049 114.171 59.1638 115.117 59.1904 116.062L59.0586 115.952ZM58.7736 95.7994C58.7699 95.8078 58.7679 95.8169 58.7679 95.8261C58.7678 95.8353 58.7697 95.8444 58.7733 95.8529C60.2144 99.7513 60.7282 103.932 60.2739 108.061C60.2042 108.677 60.0961 109.28 59.971 109.876C59.8096 110.457 59.6675 111.038 59.5552 111.617C59.3543 112.391 59.1428 113.162 58.9482 113.946C58.8678 114.267 58.8047 114.592 58.759 114.92C58.6585 114.569 58.5601 114.213 58.4703 113.848C58.2267 110.872 58.4038 107.881 58.3077 104.885C58.1922 101.528 57.474 98.2448 56.7171 94.9909C57.4409 95.1384 58.1343 95.4089 58.7673 95.7908L58.7736 95.7994ZM56.5036 94.9766C57.3667 98.7084 58.0996 102.409 58.1268 106.262C58.1422 108.445 58.085 110.625 58.2008 112.796C57.7833 111.081 57.4665 109.328 57.1474 107.609C56.3348 103.425 55.7782 99.1954 55.4807 94.9437C55.8193 94.9139 56.1603 94.9221 56.4972 94.968L56.5036 94.9766ZM54.8543 95.0463C54.0384 100.664 54.429 106.394 55.9998 111.851C55.6872 111.226 55.3982 110.587 55.1158 109.919C53.3177 105.729 51.7964 101.316 52.5018 96.7075C53.0522 95.8809 53.8874 95.2865 54.8479 95.0377L54.8543 95.0463ZM52.2604 97.0825C51.7818 100.867 52.7415 104.514 54.1204 108.046C54.7753 109.709 55.4533 111.413 56.3287 112.984C56.393 113.19 56.463 113.395 56.5388 113.601C54.6495 111.571 53.1114 109.239 51.9879 106.702C50.9079 103.57 50.5398 99.9294 52.2541 97.0739L52.2604 97.0825ZM59.4534 117.134C59.4375 116.92 59.4238 116.705 59.4165 116.491C59.5994 116.632 59.7823 116.772 59.9694 116.91C59.9666 117.401 59.9427 117.48 59.9505 117.98C59.7445 117.72 59.5751 117.432 59.4471 117.125L59.4534 117.134ZM62.2415 104.974C61.6889 107.883 60.6372 110.649 60.236 113.597C60.0978 114.616 60.0114 115.641 59.9772 116.669C59.7858 116.528 59.5965 116.386 59.4094 116.237C59.3333 112.712 60.3508 109.556 61.3553 106.064C62.1136 103.424 62.4536 100.722 61.2976 98.1626C62.5468 100.106 62.6975 102.534 62.2351 104.966L62.2415 104.974Z" fill="#C08A00"/>
<path d="M60.503 121.862C58.6538 121.783 56.7955 121.795 54.9369 121.851C54.909 121.802 54.8677 121.762 54.818 121.736C50.3291 119.351 46.3654 115.869 41.5569 114.102C38.0187 112.793 32.6865 112.225 30.1911 115.734C27.6956 119.243 30.5956 122.356 34.0353 123.321C38.6628 124.619 43.4981 123.174 48.1562 122.858C52.2437 122.578 57.3363 123.605 61.4404 123.782C61.8676 123.793 60.9279 121.88 60.503 121.862ZM42.7095 122.137C43.4441 122.342 44.1918 122.497 44.9474 122.6C43.1155 122.855 41.2729 123.116 39.4463 123.188C40.514 122.841 41.6054 122.474 42.7095 122.131L42.7095 122.137ZM49.3821 122.113C49.2967 122.113 49.2112 122.125 49.1279 122.131C47.6455 122.108 46.1701 121.919 44.729 121.569C45.4776 121.38 46.2261 121.218 46.9786 121.101C47.8441 121.526 48.7513 121.859 49.6855 122.096L49.3821 122.113ZM47.7239 122.251C47.0336 122.324 46.3389 122.411 45.6442 122.504C44.8938 122.449 44.1493 122.331 43.4185 122.15C43.2841 122.117 43.1498 122.08 43.0154 122.043C43.4562 121.911 43.9012 121.784 44.3461 121.667C45.458 121.936 46.5864 122.132 47.7239 122.251ZM50.7154 122.039C50.7154 122.039 50.7004 122.039 50.6919 122.039C50.6321 122.039 50.5744 122.038 50.5166 122.057L50.3029 122.068C49.2322 121.867 48.1903 121.533 47.2009 121.075C47.3527 121.053 47.5023 121.032 47.654 121.014C48.9658 121.515 50.3367 121.844 51.7323 121.993L50.7154 122.039ZM46.9048 120.927C46.6578 120.804 46.4129 120.674 46.1702 120.535C46.0297 120.45 45.8913 120.362 45.7445 120.273C46.2538 120.478 46.7631 120.68 47.2746 120.872C47.1528 120.888 47.0245 120.907 46.8963 120.927L46.9048 120.927ZM53.5767 121.802C51.6534 121.973 49.8252 121.562 48.0409 120.965C49.606 120.785 51.1912 120.897 52.7166 121.294C52.9955 121.467 53.2828 121.638 53.5702 121.802L53.5767 121.802ZM53.7087 121.876L53.7406 121.894L53.7086 121.893C53.7083 121.887 53.7061 121.881 53.7023 121.876L53.7087 121.876ZM50.6906 120.008C49.1559 119.456 47.5929 118.996 46.0648 118.403C43.6161 117.45 41.4006 115.658 39.2393 114.113C39.5017 114.173 39.7598 114.232 40.0094 114.298C43.9164 115.344 47.2773 117.773 50.6842 120.008L50.6906 120.008ZM38.7636 114.018C40.891 115.514 43.0426 117.258 45.4094 118.345C47.346 119.214 49.4319 119.738 51.4289 120.497L52.1951 120.982C50.6916 120.673 49.1472 120.622 47.6273 120.83C46.7896 120.531 45.9564 120.195 45.1274 119.858C43.8511 118.937 42.6804 117.846 41.2988 117.049C38.5077 115.454 35.2505 115.065 32.0909 114.801C33.971 113.588 36.5425 113.598 38.7679 114.018L38.7636 114.018ZM31.0305 115.725C31.2735 115.448 31.5456 115.198 31.8421 114.979C36.3017 115.374 40.1054 116.182 43.7437 119.043C43.9861 119.233 44.2286 119.413 44.4732 119.59C43.4972 119.196 42.519 118.814 41.5297 118.512C37.8631 117.405 34.0448 116.89 30.2181 116.986C30.4258 116.527 30.701 116.102 31.0348 115.725L31.0305 115.725ZM30.1316 117.178C34.4311 117.06 38.7178 117.718 42.7864 119.122C43.5516 119.391 44.3103 119.694 45.0669 119.994C45.592 120.346 46.1372 120.667 46.6996 120.956C45.9064 121.092 45.1173 121.268 44.3301 121.474C42.7793 121.117 41.2332 120.688 39.665 120.404C36.5989 119.862 33.4778 119.707 30.3743 119.942C30.1229 119.531 29.9705 119.068 29.9291 118.588C29.8877 118.108 29.9585 117.625 30.1359 117.178L30.1316 117.178ZM30.4886 120.131C34.2531 119.867 38.0366 120.172 41.7118 121.036C42.4669 121.213 43.2049 121.402 43.96 121.579C43.5322 121.695 43.1043 121.819 42.6764 121.948C41.868 121.674 41.0422 121.453 40.2046 121.289C37.917 120.928 35.7706 121.634 33.6369 122.39C33.624 122.394 33.6122 122.401 33.6022 122.41C33.5922 122.419 33.5843 122.431 33.5789 122.443C32.3194 121.946 31.1578 121.138 30.4929 120.131L30.4886 120.131ZM33.8197 122.535C36.8159 121.486 39.2549 121.148 42.3661 122.045C41.1486 122.421 39.9481 122.83 38.7755 123.203C37.4545 123.233 36.1341 123.11 34.8411 122.835C34.4963 122.756 34.1566 122.656 33.824 122.535L33.8197 122.535Z" fill="#C08A00"/>
<path d="M45.0239 80.5321C43.608 78.2473 41.6789 77.5553 39.452 79.2924C36.2168 81.8141 36.7644 86.5495 37.1262 90.158C37.6496 95.409 39.5511 100.192 41.8547 104.895C41.8814 104.96 41.9315 105.011 41.9948 105.04C42.0581 105.069 42.1298 105.072 42.1955 105.05C42.1037 106.547 41.2809 107.397 41.9357 109.058C42.0894 109.451 43.7501 110.006 43.5943 109.607C41.3879 103.976 44.6349 99.751 46.0296 94.5049C47.1864 90.1453 47.5024 84.5299 45.0239 80.5321ZM45.9683 91.3758C44.7274 95.2504 43.5384 99.1426 42.4013 103.052C41.303 99.3701 42.9238 95.6665 44.2081 92.1766C45.4403 88.8276 45.6643 85.8631 45.2889 82.385C45.7561 83.8516 46.0346 85.3717 46.1176 86.9085C46.2121 88.3991 46.1621 89.8952 45.9683 91.3758ZM42.1186 103.936C42.1006 103.722 42.0804 103.508 42.0667 103.294C42.077 103.291 42.0865 103.286 42.0947 103.279C42.103 103.272 42.1097 103.263 42.1146 103.254C42.1194 103.244 42.1223 103.234 42.123 103.223C42.1236 103.212 42.1221 103.202 42.1186 103.192C42.0913 103.108 42.0682 103.026 42.0409 102.943C42.0136 102.859 42.0416 102.829 42.0419 102.772C42.1242 102.952 42.2086 103.13 42.2952 103.308C42.295 103.332 42.3098 103.355 42.3182 103.379C42.2616 103.576 42.2028 103.77 42.1462 103.964C42.138 103.954 42.1287 103.945 42.1186 103.936ZM41.9921 102.14C41.9918 102.198 42.0106 102.256 42.0231 102.313C42.0232 102.296 42.0084 102.277 41.9999 102.26C41.9915 102.243 41.9962 102.168 41.9922 102.129L41.9921 102.14ZM45.0637 81.7992C45.0548 81.808 45.0482 81.8188 45.0444 81.8307C45.0406 81.8426 45.0398 81.8553 45.042 81.8676C45.3175 84.1187 45.5547 86.3652 45.0976 88.609C44.6714 90.7011 43.7931 92.6659 43.0726 94.6638C42.5041 96.2285 42.0379 97.8452 41.8941 99.4663C41.7786 93.0021 42.5716 86.5551 44.2498 80.3148C44.5798 80.7712 44.8531 81.2661 45.0638 81.7885L45.0637 81.7992ZM44.1057 80.1233C42.1946 87.1619 41.4098 94.461 41.7807 101.749C41.7491 101.674 41.7153 101.601 41.6837 101.534C41.4451 99.9104 41.1426 98.2797 40.8571 96.6427C40.7086 94.4772 40.8308 92.3019 41.2207 90.1675C41.8822 86.5084 43.1495 83.0056 43.1153 79.2496C43.4935 79.4767 43.8287 79.7689 44.1057 80.1126L44.1057 80.1233ZM42.83 79.0893C42.8577 79.1023 42.8811 79.1196 42.9088 79.1326C42.9743 83.3938 41.35 87.3393 40.7944 91.5127C40.6331 92.7221 40.5598 93.9418 40.575 95.162C39.6361 89.754 39.0175 84.3354 41.3196 79.1578C41.3253 79.1436 41.3277 79.1282 41.3266 79.1128C41.3255 79.0975 41.3208 79.0826 41.3131 79.0693C41.3053 79.056 41.2946 79.0447 41.2818 79.0362C41.269 79.0277 41.2544 79.0223 41.2392 79.0203C41.7597 78.8326 42.3326 78.8535 42.8386 79.0786L42.83 79.0893ZM41.1878 79.0349C41.1878 79.0349 41.1643 79.0455 41.1578 79.0625C38.6503 84.6945 39.5736 90.6075 40.6317 96.4743C40.7095 97.7026 40.871 98.9242 41.115 100.131C38.8621 94.2641 37.9286 87.9734 38.381 81.7073C38.3823 81.6947 38.3807 81.682 38.3763 81.6701C38.3719 81.6582 38.3649 81.6474 38.3558 81.6387C38.3617 81.6284 38.3668 81.6177 38.3709 81.6067C38.8804 80.6601 39.9873 79.4266 41.1964 79.0243L41.1878 79.0349ZM38.1806 82.0226C37.7523 88.6098 38.8493 95.2091 41.386 101.305C41.4423 101.539 41.5029 101.77 41.5678 102.002C41.615 102.351 41.66 102.702 41.7007 103.052C39.7024 98.7575 38.1424 94.3831 37.736 89.5973C37.5319 87.1862 37.1724 84.2947 38.1785 82.0119L38.1806 82.0226ZM42.2622 104.228L42.2883 104.132L42.2748 104.254L42.2622 104.228ZM43.976 98.4302C44.5566 96.4926 45.1557 94.5601 45.7732 92.6327C45.5414 93.8819 45.208 95.1099 44.7763 96.3044C44.5117 97.0173 44.2385 97.7237 43.974 98.4195L43.976 98.4302Z" fill="#C08A00"/>
<path d="M44.3965 109.773C42.9954 109.21 41.5406 108.792 40.0549 108.525C40.0361 108.451 39.9919 108.385 39.9299 108.34C37.8809 106.818 36.0511 105.02 34.4924 102.997C33.396 101.611 32.3055 100.321 30.8568 99.2902C27.7935 97.1051 22.7399 95.242 19.1211 97.2325C15.9179 98.9947 16.0915 104.151 18.8822 106.2C21.8132 108.36 26.2322 108.006 29.6742 108.201C34.4698 108.479 40.0143 109.655 44.5169 111.516C44.9196 111.679 44.7907 109.932 44.3965 109.773ZM35.5098 105.499C35.365 105.43 35.2244 105.354 35.0839 105.282C34.0579 104.539 32.9417 103.93 31.7622 103.47C28.8066 101.698 26.0606 99.5968 23.5767 97.206C25.3347 97.3444 27.0461 97.843 28.6048 98.6709C28.6059 98.6896 28.6125 98.7075 28.6238 98.7224C29.9216 100.417 31.3774 101.983 32.9715 103.401C34.1744 104.46 35.5235 105.345 36.6834 106.455L36.9319 106.697C37.0657 106.83 37.1931 106.968 37.3183 107.11C37.2225 107.056 37.1267 107.004 37.0266 106.954C36.5584 106.482 36.0616 106.04 35.539 105.63C35.5486 105.621 35.5558 105.61 35.56 105.597C35.5642 105.585 35.5652 105.571 35.5629 105.558C35.5607 105.545 35.5552 105.533 35.5471 105.523C35.5389 105.512 35.5283 105.504 35.5162 105.499L35.5098 105.499ZM37.8184 108.186C36.5749 107.514 35.3293 106.816 34.0643 106.163C35.0427 106.35 35.9924 106.666 36.8891 107.101C37.2455 107.445 37.5842 107.808 37.9039 108.187L37.8184 108.186ZM38.1535 108.22C38.1536 108.208 38.1537 108.197 38.1537 108.186C37.9417 107.919 37.7146 107.665 37.4832 107.413L37.6726 107.528C37.7723 107.653 37.8848 107.771 37.9653 107.902C37.9764 107.918 37.992 107.931 38.0102 107.938C38.0284 107.945 38.0483 107.947 38.0673 107.942C38.0863 107.938 38.1037 107.928 38.1171 107.914C38.1306 107.9 38.1395 107.882 38.1428 107.863C38.1917 107.9 38.2428 107.932 38.2895 107.969C38.3058 107.98 38.3252 107.986 38.345 107.987C38.3648 107.987 38.3842 107.981 38.4006 107.97C38.5388 108.082 38.6749 108.186 38.8259 108.304L38.1535 108.22ZM34.4504 104.002C34.7643 104.394 35.0868 104.771 35.4179 105.141C34.8076 104.659 34.1845 104.189 33.585 103.684C31.8976 102.244 30.3603 100.636 28.9966 98.8855C29.3458 99.0806 29.6885 99.2913 30.0246 99.5176C31.846 100.742 33.0994 102.313 34.4568 104.002L34.4504 104.002ZM23.3824 97.1918C23.3712 97.2077 23.3663 97.2272 23.3685 97.2466C23.3708 97.266 23.3801 97.2838 23.3946 97.2968C25.6753 99.4998 28.1781 101.46 30.8627 103.144C29.1336 102.591 27.3582 102.294 25.7335 101.428C23.9043 100.457 22.1536 98.8182 20.6451 97.4037C21.1405 97.2774 21.6478 97.2035 22.1586 97.1832C22.5774 97.1647 22.9853 97.1676 23.3888 97.1919L23.3824 97.1918ZM20.4419 97.4622C20.4419 97.4622 20.4419 97.4622 20.4418 97.4772C22.8192 99.7088 25.3831 101.822 28.5691 102.711C29.856 103.06 31.1157 103.504 32.3378 104.039C33.0616 104.457 33.8005 104.849 34.5502 105.229C35.2349 105.667 35.8815 106.162 36.4833 106.709C35.5604 106.342 34.5987 106.081 33.6171 105.933C32.1687 105.176 30.6616 104.538 29.1105 104.024C25.1726 102.775 21.371 101.978 17.7303 99.9255C18.2056 98.5892 19.2224 97.8302 20.4483 97.4622L20.4419 97.4622ZM17.6498 100.18C17.65 100.154 17.6672 100.131 17.6737 100.105C20.8673 101.904 24.1618 102.868 27.6914 103.813C29.4871 104.318 31.2317 104.991 32.9022 105.823C31.85 105.677 30.7848 105.579 29.7497 105.435C25.5645 104.853 21.4429 103.977 17.4786 102.49C17.3869 101.715 17.448 100.93 17.6584 100.18L17.6498 100.18ZM17.5245 102.693C20.911 103.927 24.4121 104.818 27.9752 105.352C29.6653 105.623 31.5231 105.709 33.3113 106.001C34.5573 106.616 35.7816 107.279 37.0039 107.938C31.4754 105.828 25.3065 107.781 19.7144 105.955C19.3737 105.748 19.0571 105.503 18.7703 105.225C18.0962 104.536 17.6596 103.648 17.5245 102.693ZM25.5677 107.291C23.9302 107.179 22.1004 107.053 20.5429 106.382C25.828 107.729 31.5676 106.141 36.7491 108.044C35.1845 107.883 33.6172 107.786 32.0971 107.684C29.915 107.544 27.7369 107.447 25.5613 107.299L25.5677 107.291Z" fill="#C08A00"/>
<path d="M29.7162 90.3049C28.9877 89.585 28.2934 89.9696 27.337 89.5134C27.3206 89.4712 27.2961 89.4325 27.265 89.3995C23.1902 85.1807 20.7497 78.6537 15.0327 76.2594C11.1588 74.64 5.35014 75.9773 4.95038 80.9265C4.52074 86.2478 10.6763 88.1444 14.8473 88.2165C19.5458 88.2945 25.7964 88.1202 29.4283 91.7153C29.732 92.0256 30.0199 90.6066 29.7162 90.3049ZM23.8003 88.3201C21.0316 86.9268 18.4789 85.0941 15.5132 84.1594C12.4259 83.1897 9.15877 83.0619 5.94698 82.958C5.58267 81.9363 5.5777 80.821 5.93289 79.7971C9.6488 79.5096 13.3729 80.2595 16.6919 81.9635L17.0049 82.1348C17.4 82.5142 17.7951 82.8979 18.1881 83.2816C20.2625 85.3188 22.5578 87.1173 25.0309 88.6434C24.6237 88.5228 24.212 88.4172 23.8003 88.3201ZM25.8027 88.8885C22.769 87.1337 20.2335 84.9202 17.7224 82.5421C20.6919 84.3071 23.3009 86.748 25.9476 88.943L25.8091 88.8928L25.8027 88.8885ZM16.4679 77.7739C19.5898 79.7947 21.5879 82.9995 23.7364 86.0363C21.7854 84.7405 20.055 83.1387 18.6116 81.2922C17.422 79.7644 16.2796 78.222 14.8623 76.9238C15.4196 77.1602 15.9554 77.4447 16.4637 77.7739L16.4679 77.7739ZM14.338 76.7168C16.1045 78.2101 17.4053 80.0875 18.8475 81.8845C20.3321 83.7332 21.9966 85.1167 23.9479 86.4144C23.957 86.421 23.9675 86.4255 23.9785 86.4278C23.9895 86.4301 24.0009 86.4301 24.0119 86.4277C24.4356 87.0256 24.8766 87.613 25.3304 88.1811C22.735 85.9907 20.1254 83.6376 17.1551 82.0031L16.7961 81.6625C14.5486 79.5067 12.1633 77.5425 9.16555 76.6055C10.8116 75.9772 12.6476 76.1228 14.3295 76.7167L14.338 76.7168ZM7.87156 77.2919C8.19041 77.0667 8.5306 76.8734 8.88725 76.7148C11.9259 77.5922 14.2793 79.5348 16.5184 81.6648L16.2331 81.5173C13.049 80.0032 9.52797 79.3436 6.01516 79.6029C6.39274 78.6682 7.03505 77.8648 7.86301 77.2918L7.87156 77.2919ZM6.03132 83.1512C9.20041 83.2526 12.4249 83.3845 15.4695 84.3411C18.2049 85.2013 20.5815 86.8273 23.0964 88.1633C22.7913 88.1012 22.4905 88.0434 22.1918 87.99C20.1401 86.6275 17.8201 85.7234 15.3898 85.3392C12.9594 84.9551 10.4756 85.0998 8.1075 85.7637C7.76444 85.5044 7.44448 85.2158 7.15125 84.901C6.66951 84.3932 6.28677 83.7997 6.02277 83.1511L6.03132 83.1512ZM11.1219 87.1502C13.2557 87.0251 15.3972 87.1652 17.4973 87.5675C15.3359 87.5544 13.1247 87.6373 11.1134 87.1502L11.1219 87.1502ZM18.467 87.5807C15.8784 86.9836 13.2143 86.7873 10.5675 86.9987C9.76059 86.7598 8.99689 86.3932 8.3053 85.9128C10.5577 85.3022 12.9124 85.1647 15.2216 85.5091C17.5309 85.8534 19.7448 86.6722 21.7244 87.9139C21.4107 87.8625 21.0992 87.8132 20.7962 87.7683C20.0233 87.6603 19.2448 87.5977 18.4648 87.5807L18.467 87.5807Z" fill="#C08A00"/>
<path d="M36.7549 60.0282C32.7599 57.1753 28.3556 61.3131 27.2726 65.0976C25.5903 70.9708 27.1022 77.425 28.0236 83.293C28.0312 83.3489 28.0554 83.4013 28.0932 83.4433C27.8529 85.1322 27.4417 85.339 27.8336 87.0324C27.9274 87.4482 29.0346 88.8085 28.9408 88.3927C28.18 85.0972 28.7184 81.6364 30.4438 78.7325C31.9748 76.1753 34.3992 74.2663 36.262 71.9725C38.8626 68.7422 40.9626 63.0303 36.7549 60.0282ZM38.5057 65.0097C38.5047 65.1851 38.5038 65.3585 38.5028 65.5275C38.5028 65.5275 38.5028 65.5275 38.4899 65.5403C36.8203 68.7106 34.7309 71.64 32.2784 74.2493C32.8481 73.2239 33.4348 72.2094 34.0471 71.21C35.4225 68.9705 36.915 66.8132 38.4946 64.7143C38.4983 64.8106 38.502 64.9091 38.5058 65.0075L38.5057 65.0097ZM30.0803 78.0537C29.9984 78.1815 29.9208 78.3115 29.841 78.4415C29.8438 77.9515 29.8467 77.4422 29.8496 76.9264C30.0902 76.6842 30.3265 76.4569 30.537 76.2486C30.8591 75.9327 31.1792 75.6154 31.4971 75.2967C31.0106 76.2063 30.5384 77.1246 30.0803 78.0516L30.0803 78.0537ZM28.9276 77.9386C28.9067 78.6788 28.9232 79.4196 28.9769 80.1581C28.9033 80.3374 28.8339 80.5167 28.7603 80.698C28.8231 79.7868 28.8753 78.8756 28.8975 77.9641L28.9276 77.9386ZM29.1233 77.7046C29.2996 77.5025 29.4801 77.309 29.6606 77.122C29.6467 77.6783 29.6543 78.2241 29.6513 78.7526C29.4614 79.0894 29.2907 79.437 29.1328 79.789C29.1026 79.089 29.0959 78.3956 29.1233 77.7024L29.1233 77.7046ZM31.6596 74.8933C31.2085 75.3481 30.5345 75.9233 29.8666 76.5713C29.9968 73.5762 30.611 70.3513 32.6155 68.3003C34.3857 66.4894 36.7368 65.4531 38.2395 63.3686C38.3463 63.7183 38.4215 64.077 38.4641 64.4401C35.987 67.7125 33.7543 71.1638 31.7842 74.7658C31.7434 74.804 31.7026 74.8487 31.6596 74.8912L31.6596 74.8933ZM38.166 63.1498C36.3958 65.7053 33.1476 66.7525 31.4922 69.3966C30.199 71.4569 29.7562 74.1994 29.6711 76.7647C29.4907 76.9453 29.3145 77.1281 29.1447 77.3153C29.2775 74.8954 29.8407 72.5194 30.8078 70.2991C32.288 66.9219 34.6982 64.1205 37.0954 61.3724C37.1069 61.357 37.113 61.3383 37.1127 61.319C37.5779 61.8552 37.9355 62.476 38.166 63.1476L38.166 63.1498ZM37.0172 61.2157C37.0067 61.216 36.9964 61.2183 36.9868 61.2227C36.9773 61.227 36.9687 61.2332 36.9616 61.2409C34.5536 64.006 32.1112 66.8286 30.6246 70.2229C29.6164 72.5408 29.0454 75.0262 28.9405 77.5535L28.9146 77.5854C28.9171 77.1574 28.9195 76.7295 28.907 76.3014C28.8342 74.0667 28.5482 71.7834 29.052 69.5763C29.4729 68.413 29.9643 67.2629 30.4855 66.1324C31.8373 63.9077 33.8109 62.0298 35.6877 60.2647C35.6877 60.2647 35.6878 60.2497 35.6878 60.2412C36.1859 60.4803 36.6364 60.8083 37.0173 61.2092L37.0172 61.2157ZM28.6525 74.8529C28.7001 75.8655 28.7073 76.8671 28.6866 77.8684C28.4123 78.2086 28.1774 78.5788 27.9862 78.9721C27.8605 78.1601 27.7412 77.3482 27.6348 76.5342C27.6884 74.5235 28.0439 72.5327 28.6893 70.6288C28.5614 72.029 28.5491 73.4375 28.6526 74.8401L28.6525 74.8529ZM35.5196 60.1587C33.9606 61.6264 32.3328 63.1729 31.0498 64.9358C31.8905 63.1955 32.778 61.5068 33.5689 59.8945C33.5751 59.8773 33.5753 59.8584 33.5692 59.841C34.2342 59.7823 34.9037 59.8869 35.5196 60.1458L35.5196 60.1587ZM33.3854 59.8612C32.4303 61.7976 31.3443 63.8508 30.3604 65.9753C29.7923 66.8814 29.3485 67.8601 29.041 68.885C28.9799 69.0986 28.9275 69.3122 28.8814 69.5259C28.1645 71.4163 27.7022 73.3943 27.5066 75.4077C27.4416 74.8252 27.3872 74.2427 27.3435 73.6603C27.3604 73.6596 27.3764 73.6531 27.3889 73.6418C27.4015 73.6306 27.4097 73.6154 27.4123 73.5987C28.3624 69.152 29.3572 64.7185 31.3307 60.5936C31.3307 60.5936 31.3309 60.5743 31.3309 60.5657C31.7431 60.3292 32.1823 60.1433 32.6391 60.0121C32.88 59.9399 33.1259 59.8852 33.3747 59.8483L33.3854 59.8612ZM27.5789 66.816C27.979 64.4456 29.0415 62.0134 31.0631 60.718C29.2122 64.679 28.227 68.9178 27.3143 73.1764C27.1522 71.0519 27.2368 68.916 27.5662 66.8117L27.5789 66.816ZM28.0629 79.377C28.2236 78.9826 28.4347 78.6108 28.6907 78.2708C28.6634 79.3235 28.6083 80.376 28.5403 81.4348C28.5077 81.5437 28.4793 81.6484 28.4509 81.7616C28.3131 80.9603 28.1795 80.1611 28.0502 79.3641L28.0629 79.377ZM30.8294 77.0318C30.9181 76.8312 30.9959 76.6692 31.0262 76.6052C31.3243 76.0209 31.633 75.441 31.946 74.8632C32.5754 74.2257 33.19 73.5751 33.7748 72.8902C35.5817 70.7548 37.1591 68.4348 38.4811 65.9682C38.0087 70.5467 33.5083 73.5731 30.8167 77.0188L30.8294 77.0318Z" fill="#C08A00"/>
<path d="M23.1178 71.2123C22.2402 70.4251 21.7881 71.0425 20.813 70.5028C20.8471 70.4654 20.8704 70.4194 20.8805 70.3697C20.8905 70.32 20.8869 70.2685 20.8701 70.2207C19.5747 65.9037 16.6992 62.2369 12.6936 60.1265C10.0977 58.7558 4.13768 56.6573 1.76171 59.4397C-1.3453 63.0752 4.7444 66.7838 7.51164 67.6893C12.9715 69.4718 18.5434 68.8369 23.123 72.9351C23.4396 73.2305 23.4366 71.4906 23.1178 71.2123ZM19.8929 70.0341C19.6939 69.7217 19.487 69.4192 19.2723 69.1266L19.4424 69.2476C19.6317 69.3945 19.823 69.552 20.0122 69.7203C20.0626 69.8662 20.1088 70.012 20.1549 70.16L19.8929 70.0341ZM17.167 69.0069C16.776 68.6425 16.4087 68.2612 16.0499 67.8799C17.0064 67.9542 17.9314 68.258 18.7467 68.7655L18.7744 68.7828C19.0522 69.1358 19.3171 69.5036 19.5691 69.882C18.7888 69.5368 17.9863 69.2444 17.167 69.0069ZM15.7972 67.6127C15.4788 67.2702 15.1603 66.9341 14.829 66.6087C15.6654 66.9427 16.4738 67.3434 17.2464 67.8069C17.0791 67.7632 16.9096 67.7284 16.7386 67.7028C16.4292 67.66 16.1154 67.6321 15.8015 67.6127L15.7972 67.6127ZM12.8128 60.9448C14.75 62.0522 16.4306 63.5595 17.743 65.3665C14.0324 62.8323 9.7627 60.9555 5.81891 58.8626C6.40392 58.9031 6.98653 58.9885 7.49869 59.0692C9.36758 59.3702 11.1676 60.0055 12.8128 60.9448ZM3.93644 58.9928C4.45956 58.8689 4.99815 58.8229 5.53486 58.8564C5.52602 58.8753 5.52505 58.897 5.53214 58.9167C5.53924 58.9364 5.55383 58.9525 5.57272 58.9615C9.71245 61.152 14.2102 63.1032 18.0587 65.8139C18.6164 66.6356 19.0983 67.5064 19.4984 68.4156C15.7588 62.7225 8.77468 60.7945 2.245 60.0873C2.66435 59.5363 3.26248 59.1492 3.93644 58.9928ZM2.1372 60.2641C8.91244 60.9837 16.2186 62.9975 19.8139 69.2717C19.4964 68.9941 19.1603 68.7386 18.808 68.507C16.8445 66.0661 14.2219 64.2423 11.2536 63.2533C8.28524 62.2644 5.09661 62.1522 2.06866 62.9301C1.6362 61.979 1.68012 61.0163 2.1372 60.2641ZM2.25861 63.3316C2.21419 63.2564 2.17833 63.1791 2.14031 63.104C5.04259 62.3645 8.09434 62.4519 10.9519 63.3563C13.8094 64.2608 16.3593 65.9464 18.3141 68.2232C18.2758 68.2015 18.2331 68.1863 18.1948 68.1667C17.0362 67.3892 15.7884 66.7546 14.4784 66.2766C13.6925 65.5123 12.7548 64.9223 11.7265 64.5453C8.93615 63.5776 5.93719 63.9845 3.0875 64.4331C2.77435 64.0953 2.49659 63.7262 2.25861 63.3316ZM3.23379 64.6225C6.36566 64.1309 9.76842 63.7076 12.7182 65.1857C13.2552 65.458 13.7556 65.7974 14.2076 66.1956C14.0904 66.1584 13.9774 66.1126 13.858 66.0797C11.2309 65.325 8.54171 65.7106 5.95339 66.3964C5.94253 66.3993 5.93237 66.4044 5.92353 66.4113C5.91468 66.4182 5.90732 66.4269 5.9019 66.4367C4.90613 66.0018 4.00094 65.3827 3.23385 64.6118L3.23379 64.6225ZM6.14266 66.5411C8.86567 65.8348 11.687 65.4887 14.4048 66.4537L14.5518 66.5104C14.9215 66.8597 15.2718 67.2345 15.6135 67.6136C13.9587 67.527 12.2234 67.6989 10.6039 67.7923C9.07432 67.5414 7.57777 67.1181 6.14272 66.5304L6.14266 66.5411ZM11.4745 67.929C12.859 67.8617 14.2519 67.8051 15.6314 67.8555C15.7083 67.8561 15.7765 67.8694 15.8449 67.8741C16.1675 68.2295 16.4816 68.5848 16.8257 68.9253C15.8558 68.6628 14.8723 68.4544 13.8796 68.3012C13.1285 68.1696 12.3132 68.0547 11.4746 67.9183L11.4745 67.929Z" fill="#C08A00"/>
<path d="M21.5878 58.9371C21.1294 58.0287 20.5946 58.5578 19.9948 57.7382C20.0035 57.6937 20.0037 57.648 19.9956 57.6034C19.4357 54.8683 18.6501 52.1843 17.6468 49.579C16.9688 47.8622 16.122 46.1613 14.6313 45.0102C12.5323 43.3904 7.91804 42.395 6.13027 45.0317C4.11841 48.0136 7.45843 50.7356 9.95424 51.6713C12.7868 52.7334 15.2807 54.0157 17.3421 55.8535C17.7087 56.4318 18.1955 56.9243 18.7692 57.2973C19.6544 58.3219 20.4099 59.4521 21.0184 60.6622C21.2063 61.0423 21.78 59.3173 21.5878 58.9371ZM15.5916 51.1695C15.5434 51.0065 15.5037 50.8393 15.4598 50.6742C15.9333 51.2374 16.3715 51.8294 16.7719 52.4468L16.8035 52.5198C16.4614 52.2071 16.1021 51.9178 15.7406 51.6413C15.6795 51.4804 15.6377 51.3196 15.5916 51.1695ZM14.3606 45.6525C14.4138 45.6956 14.4648 45.7409 14.5158 45.7862C14.508 45.7987 14.5038 45.8131 14.5037 45.8279C14.5036 45.8426 14.5076 45.8571 14.5153 45.8697C16.1099 48.2927 16.835 51.1162 17.9691 53.7521C17.7803 53.5368 17.5851 53.3064 17.3833 53.106C17.2395 52.8589 17.0935 52.616 16.9389 52.3774C16.411 51.1269 15.7572 49.9334 14.9877 48.8155C14.7609 47.761 14.5575 46.7067 14.3606 45.6525ZM14.706 48.3919C13.5333 46.7797 12.1284 45.3505 10.5373 44.1511C11.8384 44.2397 13.0872 44.7008 14.1352 45.4797C14.3176 46.4504 14.5001 47.4232 14.706 48.3919ZM17.9448 55.4019C17.7789 54.7229 17.5781 54.0529 17.3432 53.3946C17.8118 54.228 18.2119 55.0983 18.5395 55.9967C18.3463 55.7942 18.1466 55.5959 17.9448 55.4019ZM16.3331 51.4807C16.0195 51.0505 15.6971 50.6417 15.3448 50.2454C15.2633 49.9367 15.1839 49.6258 15.1109 49.3129C15.563 50.0093 15.9712 50.7333 16.3331 51.4807ZM16.9656 52.9425C17.2508 53.6699 17.4934 54.4133 17.692 55.169C17.4795 54.9749 17.267 54.7829 17.0544 54.5995C16.7923 54.1183 16.5153 53.622 16.2083 53.1469C16.0633 52.7393 15.9353 52.3361 15.8157 51.9458C16.2189 52.2551 16.6035 52.588 16.9677 52.9426L16.9656 52.9425ZM18.8685 56.3607C18.5767 55.4941 18.2195 54.651 17.7999 53.8386C17.9717 54.0538 18.1392 54.269 18.3024 54.4842C18.4649 54.832 18.636 55.1778 18.8199 55.515C18.9118 55.8816 19.0037 56.2461 19.0892 56.6126L18.8685 56.3607ZM17.6906 51.6444C18.012 52.5904 18.2992 53.5447 18.5607 54.5074L18.4633 54.3719C17.197 51.6794 16.494 48.7298 14.9365 46.1722L14.9684 46.2024C16.376 47.6868 17.0519 49.7716 17.6906 51.6529L17.6906 51.6444ZM10.2021 44.1295C11.9921 45.4414 13.551 47.0436 14.8144 48.8699C14.8956 49.2279 14.9791 49.5816 15.0667 49.9417C12.9505 47.647 10.2702 45.9492 7.2944 45.0185C7.28159 45.0184 7.27306 45.0184 7.26238 45.0183C7.83669 44.5415 8.54065 44.2483 9.28344 44.1765C9.58845 44.1434 9.89534 44.1306 10.2021 44.138L10.2021 44.1295ZM7.18293 45.0927C7.17818 45.1144 7.18187 45.1372 7.19326 45.1563C7.20466 45.1755 7.22289 45.1896 7.24427 45.1958C10.2976 46.1486 13.0348 47.9177 15.1607 50.3126C15.2611 50.6921 15.37 51.0695 15.4832 51.4448C12.89 49.6033 9.69189 48.6028 6.49579 47.9918C6.30801 47.4961 6.27311 46.9555 6.39562 46.4401C6.51814 45.9247 6.79241 45.4582 7.18289 45.1012L7.18293 45.0927ZM16.2294 53.9474C15.132 53.1765 13.9531 52.5294 12.714 52.0181C10.8412 51.1981 8.51536 50.7987 7.1599 49.1478C6.92279 48.8609 6.72756 48.5418 6.58005 48.2C9.79315 48.8261 13.004 49.8523 15.5797 51.7558C15.6721 52.0453 15.7687 52.3349 15.8717 52.6138C15.5142 52.0798 15.0784 51.6027 14.579 51.1988C13.2456 50.175 11.1424 50.4406 9.6035 50.6266C9.48381 50.6408 9.48054 50.8398 9.60242 50.8171C11.6158 50.5723 13.6885 50.4178 15.1314 52.0993C15.5506 52.599 15.9317 53.1297 16.2714 53.6867C16.3262 53.8262 16.3852 53.9678 16.4442 54.1159C16.3718 54.0704 16.3059 54.0101 16.2293 53.956L16.2294 53.9474Z" fill="#C08A00"/>
<path d="M36.1721 43.0667C35.1926 41.7758 33.6196 41.2019 32.0361 41.3405C29.7731 41.5386 28.2577 42.8483 26.9172 44.5745C23.4747 48.9886 23.7276 54.8455 23.2405 60.1429C23.2392 60.1571 23.2391 60.1715 23.2402 60.1857C22.5769 61.1398 22.0851 60.8688 21.4431 61.8316C21.2062 62.1873 21.6223 63.7589 21.8614 63.4074C25.2802 58.2762 28.767 53.5777 33.9893 50.1818C36.4504 48.5834 38.3134 45.8723 36.1721 43.0667ZM31.8464 42.0133C29.5246 44.2953 28.3344 47.3857 26.9915 50.2974C26.2238 51.9591 24.9716 53.9341 24.5525 55.9063C24.3821 56.3417 24.237 56.7865 24.1177 57.2387C24.1296 57.0247 24.1414 56.8236 24.1554 56.614C24.5397 54.7635 25.3978 52.9848 25.9398 51.1888C26.5733 49.0875 27.0725 46.9488 27.5694 44.8102C28.6688 43.4119 30.0916 42.2385 31.8464 42.0176L31.8464 42.0133ZM27.2812 45.1762C26.7645 47.3961 26.235 49.6158 25.5498 51.7874C25.1409 53.0814 24.5934 54.3487 24.2123 55.63C24.4447 52.3253 24.8694 49.0006 26.5919 46.1986C26.8031 45.8555 27.0336 45.5126 27.2812 45.1762ZM24.0434 58.2974C24.1529 57.8124 24.2774 57.3318 24.4253 56.862C24.4249 56.9305 24.4245 57.0011 24.4241 57.076C24.2726 57.4405 24.2167 57.838 24.2616 58.2305C24.2614 58.2605 24.2613 58.2883 24.2611 58.3161C24.2607 58.3326 24.2654 58.3489 24.2745 58.3627C24.2835 58.3765 24.2966 58.3873 24.3119 58.3935C24.319 58.4168 24.3275 58.4397 24.3372 58.4621C24.3066 58.5753 24.2782 58.6886 24.2498 58.7997C24.168 58.9125 24.0841 59.0253 24.0023 59.1403C24.006 58.8557 24.0247 58.5776 24.0434 58.2974ZM24.558 58.316L24.5581 58.3053C24.5574 58.3089 24.5574 58.3125 24.558 58.316ZM24.663 57.8888C24.7895 57.4189 24.9246 56.9404 25.0684 56.4578C25.2975 56.1335 25.559 55.8335 25.8488 55.5624C25.7918 55.9686 25.7567 56.3777 25.7436 56.7878C25.3908 57.2319 25.0457 57.6824 24.7085 58.1395C24.6897 58.0644 24.6752 57.9809 24.6629 57.8952L24.663 57.8888ZM26.0721 55.3563C26.7674 54.7691 27.5203 54.2539 28.3192 53.8185C27.4856 54.6815 26.6987 55.5897 25.9544 56.5282C25.9728 56.1379 26.0121 55.7489 26.072 55.3628L26.0721 55.3563ZM29.3675 52.7773C29.1721 52.9599 28.9894 53.1512 28.8004 53.3382C27.8508 53.8249 26.9523 54.4057 26.1185 55.072C26.2237 54.491 26.3755 53.9196 26.5725 53.3632C26.7035 53.2529 26.8407 53.1511 26.9866 53.0451C28.4469 52.0303 30.1404 51.3232 31.8564 50.7896C30.9781 51.391 30.1462 52.0576 29.3674 52.7837L29.3675 52.7773ZM25.8953 55.2631C25.6559 55.4749 25.4319 55.7036 25.2251 55.9475C25.2686 55.8087 25.3121 55.6699 25.3578 55.5204C25.6806 54.7137 25.9814 54.0268 26.0267 53.9458C26.072 53.8648 26.0871 53.8456 26.1151 53.7966C26.1432 53.7475 26.2269 53.6775 26.2848 53.6223C26.1135 54.1606 25.9833 54.7113 25.8953 55.2695L25.8953 55.2631ZM25.4047 54.7845C25.2879 55.0405 25.1732 55.3008 25.0692 55.5633C24.9651 55.8258 24.801 56.1435 24.6367 56.4847C24.6547 56.3415 24.6747 56.1982 24.7011 56.0572C24.8995 55.5501 25.1522 55.0661 25.4548 54.6137C25.4437 54.6735 25.4242 54.7333 25.4046 54.791L25.4047 54.7845ZM33.6594 49.6017C33.2307 49.879 32.8019 50.1606 32.3731 50.4487C30.3899 51.0082 28.3072 51.8004 26.694 53.0345C26.7265 52.9492 26.7633 52.8638 26.798 52.7806C27.4686 51.9158 28.2648 51.1568 29.1602 50.5288C31.3327 48.9797 33.8212 47.8095 36.2516 46.7266C36.363 46.6761 36.2678 46.5127 36.1586 46.5612C33.0623 47.9283 29.4462 49.4544 27.1375 52.0382C28.8958 48.571 32.3548 46.1428 36.0759 44.5875C36.1872 44.5412 36.092 44.3736 35.9828 44.4242C31.9727 46.108 28.2966 48.7722 26.6471 52.6383C26.43 52.9302 26.2279 53.233 26.0418 53.5457C27.7765 48.9633 30.5099 44.5526 35.0209 43.0478C35.1365 43.0101 35.0883 42.8343 34.9728 42.8656C30.235 44.4459 27.438 49.1535 25.6892 53.9541C25.4078 54.2884 25.1616 54.651 24.9547 55.0361C25.6075 52.9199 26.9696 50.7702 27.7416 49.0936C28.9202 46.5338 30.0348 43.9737 32.105 42.0001C32.105 42.0001 32.1051 41.9852 32.1051 41.9766C32.354 41.959 32.6039 41.9608 32.8526 41.9819C33.7596 42.0485 34.614 42.4349 35.2642 43.0726C35.9144 43.7104 36.3182 44.558 36.4041 45.4651C36.5761 47.5143 35.1987 48.6067 33.6594 49.6081L33.6594 49.6017Z" fill="#C08A00"/>
<path d="M21.8308 45.8784C20.9733 41.9176 19.6797 38.0158 18.3901 34.1761C17.4828 31.469 14.9724 27.09 11.5661 29.6341C8.75611 31.7415 9.95034 35.8288 12.2802 37.7712C14.7376 39.8322 18.0961 40.8081 20.3664 43.0903C20.3973 43.1198 20.4334 43.1432 20.4728 43.1595C20.7322 44.1158 20.9423 46.9892 21.1526 47.9558C21.2506 48.3781 21.9202 46.2963 21.8308 45.8784ZM18.7498 37.4122C19.0603 38.4009 19.3793 39.394 19.6791 40.3869C19.4699 40.0801 19.2108 39.8106 18.9125 39.5897C18.8683 39.476 18.8241 39.3623 18.7778 39.2485C18.4782 38.0404 18.071 36.8615 17.5611 35.726C17.3218 34.6201 17.1466 33.4975 16.9736 32.3728C17.1225 32.6456 17.2542 32.9274 17.3682 33.2166C17.888 34.5856 18.3006 36.0137 18.7498 37.4122ZM19.3082 41.3794L19.1806 41.2908C19.1682 41.2179 19.1579 41.143 19.1454 41.0765C19.1586 41.0683 19.1693 41.0566 19.1761 41.0427C19.183 41.0287 19.1859 41.0131 19.1844 40.9976C19.192 41.0145 19.2004 41.031 19.2097 41.047C19.2369 41.1521 19.2683 41.2657 19.3018 41.3794L19.3082 41.3794ZM12.7962 37.1756C14.195 37.2175 16.0589 37.3419 17.1339 38.3681C17.3279 38.5579 17.5053 38.7639 17.6643 38.9839C16.8509 38.7547 15.9944 38.7259 15.168 38.9C14.3351 38.3861 13.5422 37.8096 12.7962 37.1756ZM18.1726 39.3705C18.2848 39.4235 18.3943 39.4822 18.5006 39.5462C18.5554 39.6771 18.608 39.8101 18.6671 39.939C18.7342 40.1534 18.7993 40.3465 18.8601 40.5524C18.8787 40.6573 18.8995 40.7666 18.9181 40.8631C18.71 40.3818 18.4745 39.9128 18.2127 39.4585C18.198 39.4242 18.1853 39.3963 18.1727 39.3663L18.1726 39.3705ZM18.0603 37.7198C17.9806 37.4496 17.9053 37.1773 17.8321 36.9028C17.9865 37.302 18.1266 37.7053 18.2524 38.1127C18.1912 37.9775 18.1279 37.8551 18.0603 37.7155L18.0603 37.7198ZM16.7133 31.9472C16.8633 32.9776 17.022 34.006 17.2191 35.0239C16.2238 33.0313 14.9167 31.2108 13.3474 29.6316C14.6422 29.553 15.8919 30.6468 16.7133 31.943L16.7133 31.9472ZM13.1081 29.6578C14.8918 31.4282 16.3385 33.5097 17.377 35.7997C17.4623 36.2005 17.5583 36.6013 17.6628 36.9979C16.1528 34.4128 14.0303 32.2398 11.4833 30.6714C11.8895 30.1523 12.4643 29.7922 13.1081 29.6535L13.1081 29.6578ZM11.3242 30.8586L11.3607 30.816C13.809 32.3204 15.8632 34.3894 17.3518 36.8502C17.0882 36.4778 16.7967 36.1259 16.4799 35.7976C14.8724 34.1513 12.6788 33.036 10.7355 31.8346C10.8912 31.485 11.0889 31.1558 11.3242 30.8543L11.3242 30.8586ZM10.6555 32.0138C12.437 33.1113 14.394 34.1437 15.9431 35.5456C16.8899 36.4235 17.6472 37.4864 18.1681 38.6686C18.2374 38.8702 18.311 39.0719 18.3783 39.2714C18.2687 39.215 18.1563 39.1643 18.0416 39.1192C17.5285 38.0884 16.8761 37.1208 16.0043 36.4299C14.5435 35.2726 12.3526 34.8099 10.6042 34.2754C10.3537 33.5368 10.3749 32.7332 10.6641 32.0096L10.6555 32.0138ZM10.6991 34.4965C12.3323 34.9916 14.2669 35.4632 15.654 36.4296C16.3632 36.9497 16.9591 37.6092 17.4051 38.3679C17.2671 38.2219 17.1171 38.0877 16.9567 37.9667C15.8273 37.1327 14.1214 37.0244 12.7717 36.9871C12.7597 36.986 12.7476 36.9876 12.7362 36.9917C12.7249 36.9958 12.7146 37.0023 12.706 37.0108C12.6974 37.0193 12.6908 37.0295 12.6865 37.0408C12.6823 37.0522 12.6806 37.0643 12.6815 37.0763C11.8208 36.3127 11.0718 35.4386 10.6991 34.4922L10.6991 34.4965ZM15.4085 39.0493C16.2214 38.9059 17.0575 38.9691 17.8402 39.2333C17.908 39.3387 17.9778 39.4483 18.052 39.5516C18.263 40.011 18.4547 40.4746 18.6209 40.9295C17.6163 40.3018 16.5537 39.7401 15.5852 39.1512L15.4085 39.0493ZM19.857 41.7856C19.6876 41.5176 19.5275 41.2447 19.3768 40.9669C19.2741 40.6216 19.1671 40.2806 19.0366 39.9437C19.5704 40.433 19.9216 41.0901 20.032 41.8061C20.0345 41.8252 20.0444 41.8427 20.0594 41.8547C20.0745 41.8668 20.0936 41.8726 20.1128 41.8709L20.1568 42.021C20.059 41.9347 19.9569 41.8591 19.857 41.7813L19.857 41.7856Z" fill="#C08A00"/>
<path d="M36.7996 27.7357C33.4498 26.7235 30.1505 29.6149 28.4447 32.1196C25.27 36.7668 23.9912 37.4127 23.0009 39.5307C22.8214 39.9147 23.0924 41.8533 23.2783 41.4587C23.8719 40.2364 24.5274 39.0453 25.2422 37.8901C25.3038 37.892 25.3644 37.8744 25.4155 37.84C29.1761 35.3348 34.3812 36.8587 37.9111 33.9795C40.2887 32.0403 39.8806 28.6669 36.7996 27.7357ZM33.9589 32.9909C33.2516 33.0802 32.5515 33.2182 31.8634 33.4041C31.3179 33.5501 30.7936 33.724 30.2521 33.9149C30.5576 33.5362 30.8524 33.1445 31.1281 32.7377L31.2483 32.6294C33.3307 30.7801 35.7561 28.6892 38.7055 29.872C38.7934 30.0646 38.8526 30.2691 38.8814 30.4789C36.9438 30.5337 35.6161 31.8961 34.064 32.9146L33.9589 32.9909ZM27.2167 36.2284L27.3176 36.1392C27.6028 36.0613 27.8788 35.9798 28.1456 35.8946C28.1155 35.9201 28.0897 35.9499 28.0618 35.9754C27.7773 36.0504 27.497 36.134 27.2167 36.2284ZM26.6817 35.6511C27.0415 35.4824 27.4034 35.3138 27.7675 35.1494C27.233 35.6122 26.6751 36.0555 26.1151 36.5031C26.3004 36.2176 26.4893 35.9336 26.6817 35.6511ZM26.2962 36.5985C26.8432 36.1744 27.3988 35.7503 27.9312 35.2875L26.6901 36.4258C26.5574 36.4805 26.4268 36.5395 26.2962 36.5985ZM27.6503 35.8441L29.065 34.5828C29.232 34.5134 29.3969 34.4439 29.566 34.3724C29.2177 34.7955 28.8483 35.2008 28.4592 35.5865C28.1916 35.681 27.922 35.7647 27.6503 35.8441ZM29.4729 34.2219L30.1899 33.585C30.0608 33.7553 29.9338 33.9277 29.8004 34.0958L29.4729 34.2219ZM30.0262 34.2023C31.0432 33.8079 32.0945 33.5086 33.1668 33.3084C33.2887 33.2879 33.4105 33.2716 33.5323 33.2575C32.0669 34.1544 30.5087 34.8896 28.885 35.4504C29.2845 35.0509 29.6649 34.6349 30.0262 34.2023ZM38.568 29.6271C36.4577 28.8761 34.4771 29.7481 32.7544 31.0842C32.3661 31.3875 31.982 31.7015 31.6 32.0198C32.5548 30.505 33.4865 28.9108 35.1985 28.3408C36.5294 28.2881 37.9392 28.6532 38.568 29.6271ZM34.5701 28.4091C33.6491 28.8734 32.9292 29.6409 32.3004 30.5481C31.8072 31.2616 31.3418 31.9645 30.8638 32.6502C30.164 33.2531 29.4749 33.8731 28.7921 34.4975C29.1093 34.1841 29.4032 33.8478 29.6714 33.4914C30.7475 32.0566 31.3658 30.3832 32.646 29.1082C32.8281 29.0025 33.0146 28.8968 33.2052 28.8082C33.6376 28.6075 34.0977 28.473 34.5701 28.4091ZM32.0243 29.5062C31.2307 30.4614 30.6777 31.5639 30.0116 32.6335C29.5111 33.4138 28.9087 34.1235 28.2205 34.7438C27.7729 34.9397 27.3297 35.142 26.8885 35.3465L27.1383 34.9802C28.4951 33.0188 30.013 30.8894 32.0243 29.5062ZM31.1193 35.4169C31.843 34.9785 32.6147 34.6249 33.4192 34.3631C34.4462 34.0536 35.495 34.0503 36.5519 34.1091C35.7132 34.5105 34.8265 34.8027 33.9134 34.9786C32.9811 35.1647 32.0449 35.2886 31.1193 35.4169ZM36.8647 33.9358C34.4584 33.799 32.6868 34.3344 30.6469 35.4821C29.8987 35.5902 29.1505 35.7112 28.4319 35.8817C28.4748 35.8434 28.5156 35.8031 28.5564 35.7627C29.9348 35.3169 31.2693 34.7454 32.5431 34.0552C32.9873 33.8057 33.4168 33.5308 33.8294 33.2318C35.2225 33.1367 36.7631 33.4001 38.0662 32.9941C37.718 33.3697 37.3124 33.6875 36.8647 33.9358ZM38.8003 31.5954C38.7064 31.9962 38.532 32.3736 38.2878 32.7046C37.1596 33.1589 35.9033 32.8505 34.724 32.9171C34.5445 32.9286 34.3671 32.9466 34.1897 32.9647C35.6588 31.905 37.1927 30.7217 38.8867 30.6779C38.9068 30.9859 38.8813 31.2951 38.811 31.5954L38.8003 31.5954Z" fill="#C08A00"/>
<path d="M42.0795 18.3354C40.7025 15.9588 37.5692 17.0817 35.7859 18.182C33.023 19.8895 31.1085 22.2836 29.2461 24.8963C29.2147 24.941 29.196 24.9933 29.1919 25.0478C28.3069 25.5381 27.4959 26.1744 27.0189 27.0613C26.8181 27.4365 26.8503 28.9069 27.0511 28.5296C27.9642 26.8347 30.7151 24.9815 32.3928 24.4262C34.4407 23.7472 36.5135 23.5756 38.5943 23.1195C40.6196 22.6736 43.4946 20.77 42.0795 18.3354ZM39.0666 22.331L38.6387 22.4457C37.4639 22.4843 36.292 22.5846 35.1278 22.7463C35.6783 22.4655 36.2288 22.1848 36.7729 21.9018L37.2571 21.6334C38.4324 21.4765 39.6183 21.4133 40.8038 21.4444C40.8117 21.4446 40.8195 21.4432 40.8269 21.4403C40.8342 21.4374 40.841 21.4331 40.8466 21.4276C40.3232 21.8494 39.7166 22.1558 39.0666 22.3267L39.0666 22.331ZM31.5813 24.0203L31.5814 23.9989C31.8131 23.8229 32.0469 23.647 32.2744 23.4667C32.8147 23.3421 33.3586 23.231 33.9059 23.1336C33.5482 23.3129 33.1884 23.4859 32.835 23.661C32.4243 23.7623 32.01 23.8807 31.592 24.0161L31.5813 24.0203ZM31.1835 23.3627C31.1976 23.366 31.2122 23.3661 31.2262 23.363C31.4404 23.266 31.6545 23.1798 31.8814 23.0894C31.8361 23.1661 31.7929 23.2471 31.7476 23.3238L31.591 23.4404C31.3964 23.4883 31.2039 23.5404 31.0092 23.5926L31.1835 23.3627ZM41.2399 18.3637C39.8119 18.3813 38.3944 18.6085 37.0327 19.0382C38.0176 18.2319 39.1269 17.7175 40.6698 17.9595C40.8833 18.0612 41.0794 18.1962 41.2506 18.3595L41.2399 18.3637ZM41.4033 18.5553C41.6387 18.8723 41.7511 19.264 41.7196 19.6575C39.2714 19.3514 36.7695 20.2411 34.496 21.5327C34.6743 21.3585 34.8568 21.1886 35.033 21.0079C35.5959 20.4319 36.1246 19.8493 36.6828 19.3439C38.2049 18.8185 39.8035 18.5485 41.4141 18.5447L41.4033 18.5553ZM33.3001 22.254L32.9721 22.4657C32.7581 22.5391 32.5591 22.6084 32.3557 22.6861C33.0797 21.5656 33.9632 20.5788 35.2098 19.9498C35.4669 19.8211 35.7388 19.7011 36.0193 19.5875C35.1002 20.4563 34.2193 21.3703 33.3108 22.2498L33.3001 22.254ZM32.0745 23.3154L32.3447 23.1226L32.1301 23.3009L32.0745 23.3154ZM32.3567 22.8894L32.1422 23.0484C32.1594 23.0186 32.1788 22.9909 32.1982 22.9611C32.2539 22.9315 32.3096 22.9041 32.3674 22.8831L32.3567 22.8894ZM30.8263 23.8352L31.1899 23.7394C30.9561 23.9175 30.7265 24.0935 30.5056 24.2695L30.8263 23.8352ZM31.5253 23.7246L31.4476 23.8696C31.3468 23.948 31.2481 24.0287 31.1451 24.1071C31.1327 24.1161 31.1227 24.128 31.1159 24.1417C31.1091 24.1555 31.1058 24.1707 31.1062 24.186C30.9821 24.2301 30.8601 24.2785 30.7381 24.3268C31.0012 24.1232 31.2672 23.9204 31.5361 23.7183L31.5253 23.7246ZM34.5922 23.0228C35.6077 22.8652 36.6293 22.7504 37.6591 22.687C36.3311 22.9816 35.0014 23.1819 33.6777 23.468C33.9946 23.314 34.3009 23.1685 34.6029 23.0165L34.5922 23.0228ZM34.465 22.8507C33.845 22.9491 33.2271 23.066 32.6112 23.2015C32.8902 22.9724 33.167 22.741 33.4396 22.5033C34.4723 22.1658 35.5291 21.9071 36.6009 21.7294C35.9004 22.099 35.1891 22.4749 34.4757 22.8444L34.465 22.8507ZM33.7745 22.2039L33.8582 22.1296C36.2974 20.6316 39.0527 19.5082 41.7035 19.8478C41.7032 19.9078 41.6772 19.9739 41.6619 20.038C40.5137 19.878 39.4972 20.2133 38.424 20.7685C37.9955 20.9924 37.5671 21.2205 37.1386 21.4486C36.0035 21.6096 34.883 21.86 33.7874 22.1975L33.7745 22.2039ZM34.9152 19.554C36.0498 18.7253 37.405 17.7889 38.8262 17.6384C39.2132 17.5993 39.6041 17.6237 39.9835 17.7107C38.8483 17.6671 37.7402 18.0606 36.8866 18.8103C36.7149 18.9589 36.5474 19.1097 36.38 19.2604C35.9502 19.4156 35.5286 19.5926 35.1168 19.7908C33.7546 20.4554 32.8191 21.568 32.0517 22.8124C31.8376 22.9007 31.6235 22.9913 31.4094 23.0861C32.4145 21.751 33.5977 20.5605 34.9259 19.5477L34.9152 19.554ZM41.4621 20.6166C41.32 20.9068 41.1218 21.1658 40.8789 21.3786C40.8878 21.3648 40.8928 21.3488 40.8934 21.3324C40.894 21.3161 40.8903 21.2998 40.8825 21.2853C40.8747 21.2709 40.8633 21.2587 40.8493 21.2502C40.8352 21.2417 40.8192 21.237 40.8028 21.2368C39.7587 21.2132 38.7142 21.263 37.6772 21.386C38.9157 20.6907 40.1753 20.0425 41.6159 20.2282C41.5754 20.3581 41.5276 20.4857 41.4728 20.6102L41.4621 20.6166Z" fill="#C08A00"/>
<path d="M24.5119 27.3261C24.4602 25.5239 24.6192 23.4748 24.1166 21.7186C23.6536 20.1232 21.7038 17.0643 19.6276 17.835C17.363 18.688 17.2206 22.3357 18.3813 24.0473C19.9254 26.3223 22.4609 27.7911 23.8846 30.2214C23.8846 30.2214 23.8995 30.2365 23.9058 30.2451C23.9147 31.3152 23.9149 32.398 23.8875 33.4743C23.885 33.9022 24.9204 33.2418 24.9271 32.8139C24.9815 30.7706 24.5728 29.381 24.5119 27.3261ZM23.6694 28.6256C23.5286 28.3393 23.3929 28.0451 23.2622 27.7432C23.2639 27.4479 23.2655 27.1526 23.2672 26.8572C23.4293 27.1096 23.5707 27.3747 23.6899 27.6499C23.6952 27.9738 23.6883 28.299 23.6694 28.6256ZM23.2744 28.2291L23.2616 28.2119L23.2617 28.199C23.2617 28.199 23.2701 28.2205 23.2744 28.2291ZM23.6292 26.6736C23.6475 26.8407 23.6572 27.0077 23.667 27.1747C23.5458 26.9455 23.4101 26.7244 23.2606 26.5127C23.2623 26.2238 23.2639 25.9349 23.2463 25.6566C23.3987 25.9857 23.5267 26.3257 23.6292 26.6736ZM23.2317 25.2049C23.2204 24.9438 23.2069 24.6805 23.1892 24.4214C23.319 24.8654 23.4241 25.3162 23.504 25.7718C23.4197 25.5772 23.329 25.3882 23.2317 25.2049ZM23.0699 26.2545C22.8344 25.9515 22.5799 25.6638 22.308 25.3932C21.988 24.5713 21.6637 23.7515 21.3051 22.9508C21.9969 23.6283 22.5836 24.4057 23.0456 25.2571C23.0587 25.5868 23.0675 25.9207 23.0699 26.2545ZM23.0681 26.5712C23.0667 26.8152 23.0653 27.0591 23.0639 27.3031C22.8531 26.8201 22.6657 26.333 22.4741 25.8437C22.6921 26.0732 22.8955 26.3163 23.083 26.5713L23.0681 26.5712ZM22.8676 20.505C23.7137 21.9512 23.7045 23.5733 23.7701 25.1959C23.7907 25.6904 23.8071 26.1848 23.8235 26.6793C23.8245 26.6686 23.8246 26.6578 23.8237 26.6472C23.7191 25.5965 23.4802 24.5634 23.1129 23.5734C22.9253 21.9927 22.5133 20.4619 21.6263 19.0518C22.1294 19.453 22.5521 19.9462 22.8718 20.5051L22.8676 20.505ZM21.3093 18.842C21.3014 18.854 21.2972 18.8681 21.2971 18.8825C21.297 18.897 21.3011 18.9111 21.3088 18.9233C22.083 20.1093 22.592 21.4489 22.8008 22.85C22.0886 21.2475 21.0481 19.8126 19.747 18.6384C20.0058 18.5481 20.2821 18.5194 20.554 18.5548C20.8259 18.5901 21.086 18.6885 21.3135 18.842L21.3093 18.842ZM19.2412 18.9387C19.3431 18.8573 19.453 18.7863 19.5692 18.727C21.0692 20.0643 22.2198 21.7492 22.9203 23.6341C22.9672 24.0303 22.9991 24.4307 23.0224 24.8332C22.4931 23.9636 21.8424 23.1742 21.0899 22.4892C20.5548 21.3118 19.8603 20.2138 19.026 19.2261C19.0127 19.2118 18.9943 19.2032 18.9748 19.2022C19.0562 19.1058 19.1469 19.0175 19.2454 18.9387L19.2412 18.9387ZM18.8802 19.3235C18.8801 19.3364 18.88 19.3471 18.8928 19.36C19.619 20.2111 20.2358 21.1501 20.7287 22.1549C19.9942 21.5271 19.2119 20.9578 18.3889 20.4521C18.47 20.0442 18.6392 19.659 18.8844 19.3235L18.8802 19.3235ZM18.3557 20.6616C19.2753 21.2289 20.141 21.8798 20.9419 22.6058C21.3239 23.4132 21.6609 24.2458 21.9957 25.0849C20.9334 24.0973 19.678 23.2496 18.6255 22.4183C18.6121 22.4077 18.5963 22.4007 18.5796 22.3977C18.5628 22.3948 18.5456 22.3961 18.5294 22.4015C18.5133 22.4069 18.4987 22.4163 18.4871 22.4287C18.4755 22.4412 18.4672 22.4563 18.4629 22.4728C18.3134 21.8811 18.2784 21.2663 18.3599 20.6617L18.3557 20.6616ZM20.7437 25.5341C20.2022 24.9867 19.5409 24.4556 19.0702 23.8488C18.7858 23.4548 18.5821 23.0082 18.4711 22.5349L18.471 22.5499C19.6128 23.4525 21.0236 24.3805 22.1365 25.4968C22.4333 26.2629 22.7323 27.029 23.0591 27.7803L23.0578 27.9943C22.3408 27.1289 21.5316 26.3229 20.7394 25.5341L20.7437 25.5341ZM23.8362 28.967C23.8523 28.7532 23.8642 28.5392 23.8697 28.3253C23.8684 28.5585 23.882 28.794 23.8871 29.0273L23.8362 28.967Z" fill="#C08A00"/>
<path d="M29.113 20.5062C30.0606 18.009 30.1582 15.1079 29.8357 12.4819C29.6314 10.837 29.1521 7.98309 27.4118 7.16192C25.0515 6.05177 23.7932 9.10313 24.1374 10.9246C24.4672 12.6582 25.5948 14.1898 26.4427 15.698C27.0719 16.7664 27.5983 17.8923 28.0148 19.0604C28.0144 19.1374 27.999 19.2143 27.9879 19.2892C27.9768 19.364 28.0535 19.3902 28.1135 19.3671C28.4007 20.3193 27.8586 22.4897 27.8185 23.538C27.8011 23.9659 29.1663 22.7878 29.1836 22.3621C29.2062 21.7626 29.1689 21.1623 29.0721 20.5701C29.0882 20.5504 29.1019 20.529 29.113 20.5062ZM26.4082 7.86105C27.7045 10.8629 28.3024 14.12 28.1568 17.3857C27.7425 15.7376 27.1154 14.1505 26.2912 12.6646C25.9691 11.1366 25.799 9.58053 25.7836 8.0193C25.9746 7.92874 26.1819 7.8778 26.3932 7.86952L26.4082 7.86105ZM28.3622 18.0613L28.3159 17.9432C28.3167 17.8106 28.3324 17.678 28.3374 17.5475C28.3407 17.7273 28.3482 17.8985 28.3558 18.0698L28.3622 18.0613ZM26.6132 7.86464C26.8719 7.89054 27.1225 7.97031 27.3488 8.09881C27.5357 9.28569 27.6991 10.4731 27.839 11.6611C27.5421 10.3642 27.1297 9.09648 26.6068 7.87316L26.6132 7.86464ZM27.8096 16.8333C27.6548 16.5226 27.4935 16.2119 27.3258 15.9011C27.2772 15.8109 27.2243 15.7228 27.1735 15.6304C26.9634 15.0297 26.7404 14.4268 26.5709 13.8072C26.5332 13.6699 26.4998 13.5327 26.4643 13.3977C27.0191 14.5005 27.4674 15.6538 27.8032 16.8418L27.8096 16.8333ZM28.7659 19.194C28.7792 19.1873 28.7903 19.1769 28.7979 19.1641C28.8056 19.1512 28.8094 19.1365 28.809 19.1216C28.7374 15.9453 28.665 12.769 28.5919 9.59271C29.0137 10.5437 29.1842 11.7369 29.2613 12.8288C29.0605 14.7315 28.9683 16.6443 28.9853 18.5579C28.9304 18.8121 28.8692 19.0621 28.8015 19.312C28.7824 19.2905 28.772 19.2519 28.7594 19.2111L28.7659 19.194ZM29.1708 17.4849C29.1855 16.3893 29.2352 15.2947 29.3197 14.201C29.319 14.3294 29.3183 14.4514 29.3176 14.5691C29.3392 15.5521 29.2879 16.5353 29.1642 17.5105L29.1708 17.4849ZM28.3956 9.1826L28.6107 18.7029L28.5749 18.5999C28.4386 15.1215 28.1018 11.6537 27.566 8.21376C27.7 8.30944 27.8246 8.41781 27.9379 8.53738C28.1148 8.74195 28.2663 8.96721 28.389 9.20824L28.3956 9.1826ZM24.8005 9.24718C24.9125 8.77703 25.197 8.36652 25.5973 8.09717C25.6151 9.44409 25.7461 10.7873 25.9889 12.1125C25.6081 11.4678 25.1824 10.8228 24.7183 10.1775C24.6965 9.87377 24.722 9.56855 24.794 9.27282L24.8005 9.24718ZM25.4081 12.4615C25.0983 11.8609 24.8775 11.2185 24.7525 10.5544C25.2439 11.2454 25.6969 11.963 26.1094 12.7039C26.1427 12.8561 26.176 13.0083 26.2115 13.1605C26.3451 13.7093 26.5129 14.2455 26.6936 14.7753C26.2385 14.0424 25.7836 13.2816 25.4015 12.4871L25.4081 12.4615Z" fill="#C08A00"/>
<path d="M35.46 10.1354C36.6376 8.12989 39.0894 -0.470707 34.1042 0.281758C32.1803 0.569969 32.1511 2.68839 32.5593 4.15717C33.2856 6.77737 35.5966 9.78323 34.4335 12.6234C34.2711 13.0182 34.9087 13.1938 35.0732 12.8055C35.3819 11.994 35.4781 11.1165 35.3526 10.2566C35.3979 10.2257 35.4348 10.1841 35.46 10.1354ZM36.1154 2.29895C36.1044 4.24415 36.0187 6.1717 35.4187 8.02073C35.3576 7.76033 35.2828 7.50336 35.1945 7.2509C35.171 6.86767 35.1561 6.48451 35.1369 6.10131C35.1369 6.10131 35.152 6.08429 35.1521 6.06931C35.132 4.65198 35.3971 3.24551 35.9317 1.93387C35.9993 2.05419 36.0606 2.17659 36.1154 2.29895ZM35.2619 8.17799C35.2743 8.24442 35.2846 8.31082 35.2949 8.37723L35.2797 8.42422L35.2619 8.17799ZM35.3213 8.99802C35.3218 8.90173 35.3074 8.80747 35.2994 8.71111C35.3135 8.71339 35.328 8.71349 35.3421 8.71142C35.3417 8.77989 35.3563 8.84634 35.3601 8.92554L35.3213 8.99802ZM35.5202 8.57142C35.5205 8.50936 35.4995 8.4493 35.4892 8.38931C36.1403 6.57487 36.2663 4.69683 36.2985 2.78389C36.3361 2.90568 36.3668 3.02949 36.3904 3.15475C36.6984 4.95025 36.2752 6.88826 35.5202 8.57356L35.5202 8.57142ZM35.8132 1.72543C35.4537 2.57613 35.2053 3.46989 35.0741 4.38457C35.0422 3.23516 35.0316 2.08804 35.0467 0.936817C35.3614 1.13725 35.6242 1.40976 35.8132 1.73186L35.8132 1.72543ZM34.8592 0.849893C34.8293 2.72862 34.8699 4.60354 34.9661 6.47887C34.9663 6.43393 34.9495 6.39101 34.939 6.346C34.5495 4.61199 33.6633 3.07564 33.5282 1.28136C33.5822 1.21268 33.6427 1.14932 33.7087 1.09217C33.8611 0.952167 34.0486 0.856305 34.2512 0.814765C34.4538 0.773225 34.6639 0.787587 34.8592 0.856319L34.8592 0.849893ZM33.3602 1.52629C33.5046 2.81131 34.0043 3.94689 34.4075 5.17168C34.4999 5.45053 34.5752 5.72927 34.6462 6.01225C34.1793 5.11016 33.6032 4.24796 33.0826 3.40327C33.0134 2.79716 33.0581 2.06559 33.3602 1.53271L33.3602 1.52629ZM33.9213 5.78458C33.6381 5.19938 33.3967 4.59481 33.199 3.97546L33.1864 3.92401C33.8098 4.84888 34.3592 5.82164 34.8295 6.83316C34.9524 7.51307 35.0349 8.19967 35.0763 8.8893C34.7701 7.82882 34.384 6.79308 33.9212 5.79101L33.9213 5.78458Z" fill="#C08A00"/>
<path d="M46.4819 12.2502C46.0397 10.7726 44.2619 10.148 42.8755 10.1789C40.0066 10.2401 37.8233 12.5766 35.6444 14.1385C34.9376 14.3067 34.2445 14.5279 33.5709 14.8001C33.1813 14.9579 33.3528 15.6011 33.7424 15.4433C34.4114 15.1722 35.1003 14.9531 35.803 14.788C35.8242 14.7845 35.8449 14.7789 35.865 14.7713C37.0866 14.4937 38.3372 14.3638 39.5901 14.3845C41.1279 14.3953 42.7067 14.7017 44.2352 14.4707C45.475 14.2932 46.9368 13.7728 46.4819 12.2502ZM44.8777 13.7904C43.1406 13.5214 41.3941 13.783 39.6431 13.7086C39.6302 13.7085 39.6239 13.7085 39.6132 13.7084L39.6025 13.7083C39.4594 13.7073 39.3184 13.7063 39.1753 13.7053C41.2644 13.292 43.3506 13.0264 45.4605 13.4585C45.2872 13.6025 45.0899 13.7149 44.8777 13.7904ZM38.0429 13.768C37.7352 13.7915 37.4318 13.8258 37.1261 13.8664C37.2224 13.8393 37.3165 13.8143 37.4106 13.785C37.4233 13.7908 37.4372 13.7939 37.4512 13.794C37.4652 13.7941 37.479 13.7912 37.4918 13.7855L37.6674 13.7012C38.7373 13.3492 39.7567 12.8813 40.8434 12.5872C42.5093 12.1386 44.2758 12.2411 45.8803 12.8794C45.8331 13.0437 45.7473 13.1943 45.63 13.3184C43.0744 12.7633 40.5557 13.2186 38.0323 13.7679L38.0429 13.768ZM38.4906 12.7953C40.6832 12.2158 42.5579 11.1975 44.8127 11.3075C44.9615 11.3982 45.1037 11.4993 45.2382 11.6101C42.5314 11.345 40.0437 12.3718 37.6001 13.5209L37.4824 13.5586C37.8128 13.2998 38.1432 13.0432 38.4799 12.7952L38.4906 12.7953ZM45.4762 11.8215C45.7209 12.0437 45.8719 12.3509 45.8985 12.6805C44.5737 12.1577 43.1366 11.9883 41.7278 12.1889C41.3534 12.2509 40.9833 12.337 40.6199 12.4465C42.1757 11.916 43.7645 11.6019 45.4656 11.8214L45.4762 11.8215ZM44.1652 11.0012L44.2526 11.0339C42.4023 11.1344 40.7489 11.9295 38.9324 12.4731C39.5055 12.0649 40.1153 11.7109 40.7539 11.4159C41.8033 10.9311 43.0096 10.6379 44.1545 11.0011L44.1652 11.0012ZM41.4469 13.8861C42.4371 13.8235 43.4305 13.8305 44.4199 13.907C43.5368 14.0827 42.4331 13.9936 41.4362 13.886L41.4469 13.8861Z" fill="#C08A00"/>
</svg>
