<svg width="263" height="215" viewBox="0 0 263 215" fill="none" xmlns="http://www.w3.org/2000/svg">
<path d="M2.71168 164.223C3.47462 164.65 3.66378 164.766 4.14291 165.034C78.0957 206.416 173.093 181.612 215.905 109.743C231.274 84.0233 238.414 54.4621 236.412 24.8286C236.006 18.808 236.071 3.87661 236.071 3.87661C243.819 40.4636 237.424 78.5701 218.103 110.938C174.597 183.971 78.0496 209.183 2.89137 167.126C2.41352 166.859 1.93766 166.59 1.46383 166.318C-0.621722 165.123 1.7963 163.198 2.71168 164.223Z" fill="#C08A00"/>
<path d="M110.924 140.556C114.254 141.045 117.488 142.252 119.004 145.325C120.322 147.97 120.351 151.021 119.754 153.851C118.366 160.449 113.779 165.589 108.47 169.677C100.97 175.435 82.1754 181.013 81.9696 180.863C80.8765 182.51 81.044 184.364 79.8081 185.926C79.2672 186.612 76.7575 185.702 77.2984 185.016C81.2732 180.04 84.4852 174.533 86.8341 168.667C89.0063 163.185 89.8708 157.302 92.1657 151.878C95.3726 144.36 102.296 139.278 110.924 140.556ZM102.211 142.957C102.235 142.975 102.254 143 102.267 143.027C102.28 143.054 102.287 143.084 102.286 143.114C102.285 143.144 102.277 143.174 102.263 143.201C102.248 143.228 102.228 143.251 102.203 143.269C95.6042 147.515 94.1247 154.789 92.4951 161.751C93.1078 160.364 93.7701 159.004 94.5061 157.666C97.8928 151.557 102.464 146.138 107.968 141.71C107.488 141.723 106.998 141.75 106.513 141.805C105.031 141.971 103.583 142.354 102.219 142.942L102.211 142.957ZM93.3967 174.667C93.079 174.819 92.7563 174.968 92.4285 175.114C92.7056 175.042 92.9773 174.962 93.2527 174.883C93.2484 174.856 93.2513 174.829 93.2612 174.803C93.2711 174.777 93.2877 174.755 93.3093 174.737L93.3967 174.667ZM86.5159 177.347C86.7157 177.132 86.9039 176.907 87.0796 176.674C86.6971 177.008 86.3207 177.341 85.935 177.664C86.1101 177.55 86.3179 177.449 86.5159 177.347ZM87.6588 176.538C87.6588 176.538 87.6699 176.52 87.6765 176.508L87.6588 176.538ZM88.1064 176.581C88.2692 176.504 88.4396 176.431 88.6019 176.364L88.2302 176.433C88.2005 176.466 88.1538 176.518 88.113 176.57L88.1064 176.581ZM87.9397 176.092L88.0415 176.075C88.3003 175.76 88.5568 175.449 88.808 175.13C88.5815 175.339 88.3567 175.554 88.1413 175.745C88.0744 175.866 88.0104 175.974 87.9463 176.081L87.9397 176.092ZM88.6183 175.978C89.1831 175.883 89.7234 175.77 90.2719 175.652L90.3755 175.606C91.9732 174.937 93.5224 174.162 95.0121 173.288C104.164 165.216 111.321 155.245 115.948 144.119C115.821 144.008 115.693 143.907 115.557 143.801C110.799 150.554 105.636 157.03 100.097 163.197C97.0066 166.678 93.8718 170.232 90.481 173.525C89.906 174.345 89.2818 175.163 88.6293 175.959L88.6183 175.978ZM90.4295 176.003C89.4309 176.432 88.4493 176.842 87.4794 177.318C87.3176 177.504 87.1672 177.696 87.0015 177.881C86.9755 177.906 86.9424 177.924 86.9062 177.931C86.87 177.939 86.8325 177.936 86.798 177.923C86.7636 177.91 86.7338 177.887 86.7124 177.858C86.691 177.829 86.6788 177.794 86.6775 177.759C86.4773 177.965 86.2646 178.16 86.0405 178.341C92.4655 176.094 99.1468 174.168 104.859 170.582C100.356 173.073 95.4948 174.895 90.4384 175.988L90.4295 176.003ZM86.454 176.699L86.3544 176.713C86.3169 176.776 86.2815 176.835 86.244 176.898C86.3259 176.82 86.4012 176.754 86.4743 176.691L86.454 176.699ZM86.9908 176.233C87.2689 175.989 87.5508 175.746 87.8234 175.493C88.5111 174.153 89.0313 172.738 89.3727 171.279C88.5866 173.01 87.674 174.685 86.6417 176.29L86.9908 176.233ZM108.499 141.725C108.496 141.743 108.49 141.761 108.481 141.777C108.471 141.793 108.459 141.807 108.443 141.818C101.817 147.091 96.5471 153.79 93.0516 161.38C92.5338 162.514 92.098 163.664 91.6993 164.82C91.3809 165.986 91.0282 167.134 90.6242 168.247C90.1757 169.785 89.7486 171.331 89.2776 172.881C89.0859 173.517 88.8592 174.143 88.5986 174.756C89.1439 174.25 89.6898 173.735 90.2292 173.197C93.7643 168.304 96.5656 162.961 99.8595 157.884C103.563 152.205 108.262 147.262 112.999 142.409C111.558 141.932 110.043 141.698 108.519 141.716L108.499 141.725ZM113.394 142.601C107.97 148.171 102.809 153.82 98.7463 160.444C96.4442 164.198 94.2739 168.02 91.8057 171.652C94.3354 169.113 96.7255 166.407 99.0841 163.762C104.89 157.359 110.288 150.619 115.248 143.579C114.676 143.185 114.061 142.854 113.414 142.592L113.394 142.601ZM116.255 144.389C111.852 154.915 105.186 164.413 96.7048 172.248C97.912 171.485 99.0927 170.672 100.291 169.806C107.856 164.39 115.16 158.309 118.708 149.638C118.591 147.653 117.724 145.782 116.275 144.381L116.255 144.389ZM118.747 150.529C115.654 157.548 110.147 162.874 104.013 167.578C101.115 169.788 98.1335 172.044 94.9398 173.87C94.6108 174.16 94.2717 174.445 93.9223 174.724C99.3989 173.129 104.565 170.659 109.207 167.415C114.392 163.099 118.841 157.186 118.767 150.521L118.747 150.529ZM85.0569 177.875C85.3082 177.521 85.5558 177.165 85.7919 176.803C85.3202 176.861 84.8486 176.918 84.3716 176.968C83.8659 177.816 83.8261 177.977 83.2903 178.834C83.9284 178.592 84.5296 178.267 85.0771 177.867L85.0569 177.875ZM92.7687 154.059C90.7206 159.641 89.7086 165.481 87.3499 170.977C86.5342 172.876 85.6196 174.733 84.6097 176.542C85.0966 176.493 85.5818 176.439 86.0699 176.371C89.8788 170.361 91.3575 163.882 93.2096 156.837C94.6117 151.512 96.8233 146.501 101.546 143.252C97.2991 145.344 94.501 149.384 92.789 154.051L92.7687 154.059Z" fill="#C08A00"/>
<path d="M78.2625 184.977C81.6346 186.711 84.9269 188.613 88.1751 190.588C88.2755 190.533 88.3903 190.506 88.5058 190.511C98.9765 190.933 109.655 188.931 120.05 190.744C127.708 192.063 137.785 196.476 138.567 205.059C139.348 213.643 130.946 216.084 123.821 214.272C114.238 211.831 107.143 204.445 99.1868 199.187C92.2071 194.57 82.0788 191.191 74.5945 187.344C73.8227 186.932 77.488 184.579 78.2625 184.977ZM109.626 203.452C108.106 203.063 106.615 202.574 105.163 201.988C108.156 204.28 111.162 206.595 114.335 208.568C112.798 206.888 111.239 205.15 109.633 203.441L109.626 203.452ZM97.782 196.661C97.9346 196.746 98.074 196.854 98.2161 196.949C100.877 198.408 103.698 199.575 106.626 200.429C105.492 199.344 104.329 198.308 103.112 197.345C101.13 197.203 99.1686 196.861 97.2603 196.325L97.782 196.661ZM100.588 198.577C101.74 199.4 102.885 200.253 104.023 201.118C105.416 201.782 106.863 202.33 108.351 202.758C108.625 202.837 108.902 202.909 109.18 202.98C108.534 202.307 107.875 201.637 107.205 200.985C104.946 200.325 102.736 199.521 100.588 198.577ZM95.4878 195.185C95.4878 195.185 95.5144 195.199 95.5297 195.208C95.6365 195.268 95.7396 195.325 95.8227 195.416L96.1909 195.652C98.3059 196.387 100.507 196.865 102.744 197.075C102.497 196.883 102.252 196.696 102.001 196.511C99.1458 196.049 96.3646 195.231 93.7271 194.076L95.4878 195.185ZM103.424 197.12C103.993 197.156 104.564 197.179 105.14 197.185C105.478 197.181 105.817 197.168 106.17 197.163C105.051 197.002 103.934 196.836 102.824 196.65C103.024 196.801 103.233 196.963 103.44 197.128L103.424 197.12ZM90.6448 191.881C93.8882 194.121 97.5682 195.261 101.364 196.036C98.7678 194.142 95.8322 192.73 92.705 191.873C92.0286 191.89 91.3391 191.894 90.6563 191.888L90.6448 191.881ZM90.3332 191.875L90.2584 191.873L90.3155 191.905C90.3225 191.894 90.3327 191.886 90.3447 191.881L90.3332 191.875ZM97.6484 191.703C100.954 192.302 104.214 193.088 107.55 193.61C112.898 194.442 118.706 193.59 124.161 193.108C123.632 192.945 123.111 192.787 122.598 192.649C114.558 190.503 106.049 191.297 97.6599 191.709L97.6484 191.703ZM125.106 193.424C119.763 193.855 114.118 194.69 108.776 194.173C104.425 193.715 100.169 192.51 95.8256 191.8L93.9576 191.862C96.9532 192.85 99.7538 194.324 102.241 196.22C104.043 196.551 105.874 196.815 107.701 197.071C110.93 196.772 114.15 196.072 117.438 196.093C124.065 196.163 130.264 198.787 136.159 201.527C134.079 197.531 129.495 194.946 125.099 193.42L125.106 193.424ZM137.083 204.194C136.939 203.47 136.716 202.763 136.416 202.086C128.072 198.257 120.464 195.804 111.011 197.064C110.381 197.147 109.763 197.211 109.143 197.27C111.29 197.577 113.428 197.908 115.503 198.386C123.178 200.184 130.507 203.157 137.214 207.194C137.323 206.191 137.276 205.179 137.075 204.19L137.083 204.194ZM137.167 207.613C129.643 203.06 121.331 199.861 112.631 198.169C110.99 197.858 109.325 197.614 107.666 197.368C106.365 197.444 105.061 197.447 103.76 197.376C105.029 198.413 106.249 199.516 107.434 200.668C110.565 201.62 113.762 202.444 116.848 203.539C122.866 205.706 128.58 208.595 133.855 212.141C134.73 211.686 135.485 211.039 136.058 210.252C136.632 209.466 137.009 208.56 137.16 207.609L137.167 207.613ZM133.454 212.352C127.034 208.087 119.986 204.786 112.548 202.561C111.021 202.102 109.511 201.682 107.984 201.223C108.623 201.858 109.256 202.503 109.882 203.16C111.606 203.503 113.304 203.958 114.966 204.522C119.411 206.213 122.493 209.604 125.501 213.067C125.519 213.087 125.533 213.111 125.541 213.137C125.55 213.163 125.552 213.19 125.549 213.217C128.307 213.633 131.215 213.412 133.447 212.347L133.454 212.352ZM125.025 213.131C120.788 208.289 116.802 205.238 110.333 203.64C112.107 205.522 113.816 207.442 115.513 209.272C117.831 210.661 120.308 211.784 122.895 212.617C123.591 212.829 124.3 213 125.017 213.127L125.025 213.131Z" fill="#C08A00"/>
<path d="M148.866 129.272C153.766 126.759 157.918 127.516 160.069 132.768C163.196 140.395 157.287 148.018 152.883 153.882C146.48 162.42 138.113 168.756 129.115 174.546C129 174.63 128.857 174.668 128.715 174.654C128.572 174.639 128.441 174.573 128.347 174.467C126.95 177.146 127.528 179.446 124.632 181.652C123.95 182.174 120.417 181.453 121.11 180.922C130.903 173.431 129.53 162.851 132.516 152.382C135.002 143.684 140.291 133.668 148.866 129.272ZM135.886 147.04C134.055 154.986 132.114 162.909 130.063 170.811C135.854 165.564 136.83 157.529 138.183 150.204C139.481 143.175 142.172 137.829 146.464 132.204C144.104 134.263 142.025 136.606 140.276 139.176C138.554 141.654 137.084 144.288 135.886 147.04ZM129.644 172.623C129.9 172.271 130.159 171.922 130.406 171.566C130.391 171.55 130.379 171.532 130.372 171.512C130.365 171.492 130.361 171.47 130.363 171.449C130.364 171.427 130.37 171.406 130.38 171.387C130.39 171.368 130.404 171.351 130.421 171.337C130.556 171.22 130.682 171.103 130.818 170.986C130.954 170.869 130.935 170.789 130.995 170.689C130.66 170.918 130.324 171.14 129.985 171.36C129.96 171.401 129.91 171.427 129.87 171.459C129.766 171.855 129.668 172.25 129.566 172.643C129.591 172.634 129.618 172.627 129.644 172.623ZM131.741 169.649C131.682 169.749 131.588 169.83 131.505 169.917C131.523 169.888 131.57 169.869 131.603 169.848C131.636 169.827 131.705 169.693 131.753 169.631L131.741 169.649ZM147.475 131.42C147.482 131.444 147.482 131.469 147.476 131.494C147.471 131.518 147.459 131.541 147.442 131.56C144.606 135.168 141.843 138.807 140.318 143.144C138.896 147.188 138.411 151.469 137.61 155.647C136.991 158.924 136.136 162.187 134.702 165.132C141.644 154.087 146.952 142.153 150.47 129.68C149.407 130.134 148.405 130.712 147.486 131.401L147.475 131.42ZM150.925 129.495C146.99 143.582 140.779 156.979 132.525 169.188C132.659 169.09 132.796 168.998 132.921 168.915C135.038 166.353 137.275 163.843 139.489 161.305C142.01 157.716 144.059 153.837 145.59 149.757C148.226 142.77 149.623 135.439 153.598 128.989C152.688 128.998 151.787 129.163 150.937 129.477L150.925 129.495ZM154.272 129C154.209 128.995 154.15 129.001 154.087 128.995C149.53 136.287 148.307 144.743 144.946 152.511C143.973 154.762 142.833 156.942 141.534 159.034C148.84 150.646 155.587 141.915 156.887 130.647C156.892 130.616 156.904 130.587 156.922 130.562C156.94 130.536 156.964 130.515 156.991 130.5C157.019 130.485 157.05 130.477 157.081 130.475C157.113 130.473 157.145 130.478 157.174 130.49C156.443 129.64 155.403 129.096 154.268 128.973L154.272 129ZM157.25 130.568C157.25 130.568 157.281 130.61 157.275 130.646C155.866 142.907 148.061 152.183 140.066 161.243C138.647 163.285 137.087 165.231 135.396 167.067C145.516 159.216 153.732 149.299 159.458 138.021C159.468 137.998 159.485 137.978 159.505 137.962C159.525 137.946 159.549 137.934 159.574 137.928C159.574 137.905 159.576 137.881 159.58 137.858C159.661 135.708 158.977 132.458 157.246 130.541L157.25 130.568ZM159.486 138.769C153.383 150.576 144.554 160.861 133.689 168.821C133.346 169.168 132.997 169.506 132.64 169.84C132.192 170.395 131.746 170.957 131.31 171.518C139.339 166.125 146.673 160.15 152.383 152.297C155.258 148.341 158.911 143.712 159.5 138.752L159.486 138.769ZM129.085 172.982L129.138 172.789L129.035 173.014L129.085 172.982ZM132.078 161.237C133.065 157.304 134.013 153.361 134.923 149.408C134.034 151.8 133.347 154.257 132.87 156.757C132.598 158.255 132.348 159.751 132.093 161.22L132.078 161.237Z" fill="#C08A00"/>
<path d="M119.51 180.397C122.589 180.842 125.613 181.591 128.533 182.634C128.644 182.524 128.791 182.456 128.948 182.441C134.179 181.885 139.308 180.632 144.189 178.715C147.583 177.431 150.867 176.308 154.518 175.993C162.244 175.319 173.175 177.214 177.538 184.312C181.399 190.595 175.717 199.323 168.618 200.037C161.153 200.802 153.661 195.721 147.335 192.576C138.516 188.205 127.428 184.625 117.48 183.284C116.593 183.159 118.643 180.273 119.51 180.397ZM139.771 182.007C140.101 182.033 140.43 182.044 140.755 182.063C143.355 181.818 145.975 181.895 148.552 182.294C155.656 182.225 162.73 181.374 169.64 179.759C166.368 178.219 162.805 177.349 159.169 177.202C159.148 177.233 159.118 177.257 159.082 177.271C155.008 178.884 150.786 180.116 146.473 180.952C143.229 181.564 139.907 181.727 136.687 182.471L135.994 182.636C135.616 182.732 135.246 182.841 134.875 182.959C135.102 182.963 135.327 182.97 135.557 182.985C136.881 182.644 138.226 182.383 139.583 182.203C139.575 182.178 139.574 182.151 139.58 182.125C139.585 182.099 139.598 182.075 139.615 182.055C139.633 182.035 139.655 182.02 139.68 182.01C139.706 182 139.733 181.997 139.76 182L139.771 182.007ZM132.865 184.311C135.777 184.408 138.72 184.463 141.651 184.615C139.715 183.949 137.697 183.533 135.649 183.377C134.656 183.612 133.676 183.895 132.712 184.226L132.865 184.311ZM132.233 184.031C132.246 184.009 132.257 183.991 132.268 183.972C132.923 183.726 133.592 183.517 134.266 183.316L133.81 183.322C133.502 183.437 133.179 183.528 132.899 183.673C132.863 183.689 132.822 183.695 132.782 183.689C132.742 183.683 132.705 183.665 132.676 183.639C132.646 183.612 132.626 183.577 132.617 183.539C132.608 183.501 132.61 183.462 132.624 183.425C132.499 183.439 132.374 183.443 132.253 183.459C132.212 183.463 132.171 183.454 132.136 183.434C132.101 183.414 132.072 183.384 132.055 183.348C131.692 183.402 131.342 183.444 130.949 183.496L132.233 184.031ZM143.216 180.494C142.249 180.853 141.283 181.177 140.308 181.482C141.895 181.267 143.494 181.085 145.087 180.819C149.589 180.04 153.999 178.819 158.249 177.176C157.424 177.16 156.595 177.177 155.761 177.227C151.246 177.499 147.379 178.943 143.204 180.487L143.216 180.494ZM170 179.931C170.003 179.97 169.992 180.008 169.968 180.039C169.944 180.071 169.908 180.092 169.869 180.1C163.516 181.596 157.022 182.449 150.491 182.642C154.144 183.435 157.611 184.718 161.403 184.868C165.669 185.041 170.491 183.982 174.648 183.066C173.899 182.347 173.073 181.706 172.186 181.154C171.46 180.698 170.732 180.291 169.989 179.924L170 179.931ZM174.949 183.372C174.949 183.372 174.949 183.372 174.933 183.398C168.379 184.847 161.616 185.902 155.023 184.214C152.37 183.515 149.667 183.007 146.936 182.694C145.212 182.684 143.489 182.614 141.76 182.511C140.085 182.575 138.419 182.775 136.779 183.11C138.803 183.41 140.785 183.934 142.686 184.671C146.051 184.829 149.397 185.251 152.691 185.934C160.998 187.76 168.591 190.229 177.205 190.369C177.752 187.58 176.735 185.241 174.937 183.366L174.949 183.372ZM177.083 190.889C177.11 190.844 177.104 190.786 177.119 190.736C169.564 190.611 162.698 188.944 155.435 187.005C151.715 186.06 147.91 185.457 144.072 185.204C146.096 186.016 148.092 186.925 150.084 187.723C158.134 190.953 166.379 193.609 174.981 195.051C175.951 193.806 176.66 192.389 177.068 190.88L177.083 190.889ZM174.687 195.356C167.377 194.061 160.221 192.057 153.327 189.375C150.038 188.132 146.645 186.401 143.158 185.098C140.302 184.899 137.433 184.806 134.572 184.707C146.605 186.656 155.542 196.269 167.392 198.773C168.215 198.759 169.033 198.657 169.833 198.467C171.75 197.959 173.451 196.868 174.687 195.356ZM155.589 195.158C158.618 196.621 162.005 198.254 165.473 198.673C154.669 195.652 146.115 187.103 134.915 185.147C137.866 186.452 140.754 187.87 143.565 189.231C147.592 191.198 151.567 193.234 155.591 195.179L155.589 195.158Z" fill="#C08A00"/>
<path d="M165.911 161.632C167.957 161.126 168.791 162.492 170.967 162.672C171.041 162.616 171.125 162.574 171.214 162.548C182.859 159.386 194.002 150.584 206.666 152.234C215.244 153.356 224.183 161.541 219.737 170.491C214.955 180.114 202.03 177.162 194.535 173.067C186.097 168.449 175.16 161.825 164.953 164.358C164.089 164.587 165.056 161.846 165.911 161.632ZM178.502 164.189C184.879 164.584 191.329 164.002 197.579 165.388C204.081 166.837 210.025 169.921 215.847 172.991C217.559 171.595 218.731 169.675 219.166 167.547C212.856 163.292 205.45 160.819 197.77 160.404L197.035 160.383C195.937 160.639 194.834 160.902 193.736 161.167C187.923 162.586 181.966 163.369 175.976 163.503C176.826 163.706 177.669 163.941 178.502 164.189ZM174.348 163.145C181.573 163.184 188.39 161.927 195.334 160.361C188.213 160.405 181.029 161.98 174.033 163.093L174.332 163.146L174.348 163.145ZM202.535 153.397C194.876 153.728 187.982 157.24 180.996 160.311C185.816 160.047 190.564 159.031 195.055 157.303C198.763 155.869 202.403 154.361 206.277 153.553C205.039 153.398 203.79 153.347 202.542 153.401L202.535 153.397ZM207.425 153.726C202.727 154.518 198.457 156.443 194.019 158.087C189.451 159.778 185.049 160.483 180.225 160.75C180.202 160.752 180.179 160.749 180.157 160.742C180.135 160.734 180.115 160.723 180.098 160.708C178.721 161.311 177.325 161.88 175.925 162.401C182.824 161.245 189.918 159.822 196.905 160.004L197.899 159.779C204.143 158.33 210.433 157.352 216.742 158.766C214.468 156.016 211.051 154.41 207.44 153.735L207.425 153.726ZM218.328 161.26C217.996 160.549 217.592 159.871 217.123 159.237C210.803 157.678 204.593 158.651 198.39 160.064L199.052 160.098C206.293 160.705 213.244 163.127 219.222 167.129C219.524 165.133 219.219 163.096 218.343 161.269L218.328 161.26ZM215.495 173.239C209.753 170.209 203.88 167.174 197.467 165.746C191.705 164.464 185.783 164.868 179.918 164.631C180.525 164.832 181.12 165.037 181.707 165.247C186.777 164.969 191.845 165.755 196.569 167.55C201.292 169.346 205.559 172.108 209.08 175.65C209.96 175.549 210.83 175.375 211.68 175.128C213.066 174.738 214.365 174.101 215.511 173.248L215.495 173.239ZM202.273 174.995C198.608 172.62 194.653 170.696 190.498 169.266C194.356 171.43 198.203 173.81 202.288 175.003L202.273 174.995ZM188.759 168.308C193.986 169.895 198.929 172.251 203.417 175.294C205.101 175.698 206.842 175.837 208.573 175.707C205.202 172.374 201.157 169.755 196.691 168.014C192.224 166.272 187.433 165.446 182.618 165.588C183.229 165.816 183.835 166.047 184.421 166.276C185.908 166.871 187.358 167.55 188.763 168.31L188.759 168.308Z" fill="#C08A00"/>
<path d="M184.942 102.233C195.021 101.349 198.543 112.949 196.526 120.579C193.398 132.422 183.983 142.037 176.229 151.237C176.157 151.326 176.059 151.392 175.948 151.426C174.615 154.585 175.131 155.358 172.67 157.886C172.07 158.509 168.683 159.738 169.283 159.115C174.07 154.194 176.719 147.674 176.676 140.914C176.618 134.95 174.295 129.201 173.372 123.356C172.112 115.148 174.329 103.161 184.942 102.233ZM176.636 109.064C176.455 109.368 176.276 109.668 176.102 109.961C176.102 109.961 176.102 109.961 176.112 109.996C175.778 117.159 176.442 124.331 178.085 131.317C178.14 128.97 178.154 126.625 178.106 124.28C177.993 119.022 177.587 113.787 176.964 108.565C176.857 108.727 176.748 108.894 176.639 109.06L176.636 109.064ZM178.03 140.11C178.042 140.413 178.045 140.716 178.052 141.021C178.557 140.172 179.083 139.29 179.615 138.397C179.44 137.735 179.256 137.103 179.099 136.531C178.855 135.66 178.616 134.788 178.383 133.916C178.3 135.979 178.183 138.042 178.032 140.106L178.03 140.11ZM180.2 141.077C179.466 142.376 178.665 143.639 177.8 144.86C177.744 145.244 177.68 145.623 177.622 146.011C178.46 144.374 179.317 142.748 180.227 141.151L180.2 141.077ZM180.096 140.475C179.993 139.948 179.874 139.431 179.748 138.926C179.192 139.9 178.61 140.835 178.065 141.75C178.052 142.524 177.993 143.297 177.907 144.065C178.69 142.886 179.425 141.696 180.098 140.471L180.096 140.475ZM178.514 133.055C178.843 134.297 179.442 135.972 179.955 137.766C182.845 132.463 185.113 126.273 183.685 120.704C182.423 115.786 179.321 111.619 178.82 106.499C178.266 106.995 177.758 107.538 177.304 108.122C178.3 116.279 178.675 124.496 178.426 132.709C178.458 132.816 178.484 132.935 178.517 133.051L178.514 133.055ZM179.179 106.196C179.665 112.399 184.351 117.493 184.54 123.733C184.694 128.599 182.623 133.782 180.101 138.298C180.234 138.792 180.357 139.286 180.464 139.781C182.749 135.468 184.224 130.796 184.817 125.984C185.704 118.655 184.336 111.38 182.935 104.21C182.931 104.172 182.94 104.133 182.96 104.1C181.574 104.555 180.291 105.266 179.181 106.192L179.179 106.196ZM183.238 104.018C183.256 104.029 183.272 104.044 183.285 104.061C183.297 104.078 183.306 104.098 183.311 104.118C184.712 111.329 186.115 118.673 185.222 126.038C184.6 131.06 183.026 135.929 180.579 140.399L180.591 140.48C181.033 139.739 181.475 138.997 181.943 138.271C184.401 134.486 187.29 130.833 188.694 126.512C189.157 124.078 189.481 121.595 189.733 119.115C189.646 113.907 188.093 108.668 186.594 103.721C186.594 103.721 186.609 103.695 186.618 103.681C185.483 103.59 184.34 103.7 183.244 104.007L183.238 104.018ZM183.905 136.027C182.765 137.727 181.709 139.45 180.702 141.2C180.836 142.064 180.868 142.941 180.798 143.814C181.868 142.539 182.926 141.258 183.963 139.96C185.963 136.434 187.406 132.637 188.242 128.696C187.01 131.243 185.564 133.688 183.919 136.005L183.905 136.027ZM187.003 103.708C188.247 107.82 189.531 112.137 189.976 116.479C190.294 112.623 190.475 108.81 190.748 105.226C190.755 105.189 190.775 105.157 190.804 105.133C189.682 104.359 188.382 103.862 187.017 103.686L187.003 103.708ZM191.11 105.354C190.791 109.663 190.583 114.307 190.119 118.971C190.185 121.11 189.955 123.249 189.434 125.33C189.319 125.76 189.19 126.182 189.049 126.598C188.355 130.587 187.116 134.47 185.365 138.144C186.088 137.204 186.792 136.254 187.476 135.292C187.447 135.274 187.426 135.246 187.415 135.214C187.404 135.182 187.406 135.148 187.418 135.116C190.362 126.477 193.213 117.815 194.001 108.697C194.001 108.697 194.021 108.663 194.03 108.648C193.543 107.823 192.956 107.058 192.28 106.369C191.926 106.001 191.546 105.657 191.142 105.342L191.11 105.354ZM194.19 123.236C195.949 118.738 196.593 113.464 194.348 109.182C193.512 117.894 190.847 126.21 188.033 134.486C190.535 130.982 192.61 127.208 194.217 123.242L194.19 123.236ZM180.239 144.435C180.365 143.592 180.377 142.736 180.276 141.89C179.227 143.736 178.228 145.609 177.246 147.506C177.19 147.727 177.132 147.936 177.064 148.16C178.145 146.916 179.215 145.671 180.276 144.426L180.239 144.435ZM177.763 137.587C177.814 137.151 177.844 136.793 177.857 136.652C177.936 135.341 177.991 134.028 178.036 132.713C177.581 130.976 177.166 129.231 176.839 127.457C175.851 121.942 175.462 116.34 175.681 110.744C171.75 119.127 176.602 128.905 177.799 137.578L177.763 137.587Z" fill="#C08A00"/>
<path d="M197.544 135.34C199.926 134.868 200.086 136.392 202.383 136.446C202.362 136.347 202.368 136.244 202.402 136.148C202.436 136.052 202.496 135.967 202.576 135.902C209.379 129.758 218.315 126.335 227.639 126.743C233.685 127.002 246.473 129.408 247.8 136.616C249.538 146.036 234.841 146.28 228.975 145.044C217.406 142.599 208.156 135.866 195.74 138.309C194.869 138.499 196.687 135.498 197.544 135.34ZM204.508 136.568C205.188 136.23 205.871 135.917 206.558 135.629L206.129 135.666C205.639 135.728 205.135 135.806 204.623 135.905C204.381 136.106 204.147 136.311 203.911 136.52L204.508 136.568ZM210.428 137.552C211.503 137.318 212.553 137.031 213.589 136.736C211.81 135.896 209.848 135.485 207.869 135.537L207.802 135.539C206.94 135.867 206.085 136.234 205.243 136.633C206.991 136.826 208.723 137.133 210.428 137.552ZM214.317 136.53C215.24 136.261 216.157 136.003 217.085 135.776C215.25 135.506 213.394 135.381 211.537 135.399C211.88 135.493 212.218 135.605 212.548 135.733C213.144 135.972 213.731 136.242 214.309 136.526L214.317 136.53ZM226.574 128.036C221.974 127.988 217.414 128.891 213.197 130.683C222.438 130.061 231.988 131.14 241.184 131.515C240.102 130.994 238.976 130.552 237.981 130.173C234.343 128.802 230.479 128.078 226.574 128.036ZM244.397 133.644C243.596 132.901 242.686 132.277 241.696 131.792C241.692 131.834 241.671 131.872 241.638 131.899C241.605 131.926 241.562 131.939 241.519 131.935C231.873 131.53 221.839 130.349 212.169 131.136C210.32 131.991 208.556 133.007 206.897 134.172C219.481 128.125 233.914 131.861 246.265 137.245C246.094 135.87 245.433 134.596 244.397 133.644ZM246.273 137.66C233.471 132.048 218.377 128.135 205.443 135.331C206.297 135.173 207.161 135.072 208.029 135.029C214.066 132.8 220.631 132.304 226.942 133.599C233.252 134.894 239.041 137.926 243.617 142.332C245.377 141.128 246.302 139.421 246.273 137.66ZM242.86 142.833C243.018 142.749 243.162 142.651 243.308 142.56C238.916 138.347 233.397 135.411 227.371 134.082C221.346 132.753 215.054 133.084 209.204 135.038C209.294 135.039 209.386 135.056 209.475 135.061C212.346 134.891 215.227 135.057 218.055 135.557C220.249 135.032 222.532 134.962 224.754 135.351C230.726 136.503 235.636 140.24 240.238 143.897C241.147 143.63 242.026 143.274 242.86 142.833ZM239.78 144.076C234.722 140.059 229.11 135.886 222.323 135.454C221.084 135.381 219.84 135.461 218.621 135.691C218.869 135.745 219.117 135.781 219.364 135.845C224.823 137.199 229.205 140.585 233.094 144.388C233.111 144.404 233.123 144.423 233.132 144.444C233.14 144.465 233.144 144.487 233.144 144.51C235.368 144.766 237.624 144.613 239.791 144.057L239.78 144.076ZM232.607 144.446C228.499 140.472 223.841 137.02 218.001 135.937L217.681 135.887C216.659 136.116 215.646 136.409 214.643 136.717C217.676 138.242 220.584 140.294 223.367 142.094C226.35 143.208 229.453 143.991 232.618 144.428L232.607 144.446ZM221.676 141.449C219.284 139.932 216.865 138.426 214.359 137.117C214.222 137.04 214.086 136.994 213.96 136.933C213.015 137.22 212.087 137.516 211.12 137.756C213.118 138.284 215.085 138.919 217.011 139.659C218.484 140.191 220.053 140.818 221.687 141.43L221.676 141.449Z" fill="#C08A00"/>
<path d="M213.058 115.692C214.82 114.587 215.22 116.042 217.141 115.234C217.172 115.148 217.219 115.069 217.28 115C221.126 110.844 225.32 107.004 229.82 103.52C232.815 101.242 236.094 99.1617 239.945 98.6821C245.366 98.0085 254.612 100.957 255.044 107.319C255.515 114.503 246.737 115.824 241.323 114.915C235.177 113.883 229.405 113.575 223.823 114.663C222.568 115.29 221.189 115.648 219.78 115.712C217.138 116.586 214.616 117.773 212.273 119.247C211.542 119.713 212.32 116.154 213.058 115.692ZM231.818 108.346C232.074 108.113 232.318 107.865 232.569 107.624C231.14 108.117 229.743 108.696 228.388 109.357L228.255 109.451C229.19 109.257 230.13 109.121 231.061 109.01C231.338 108.794 231.58 108.558 231.818 108.346ZM239.757 100.065C239.618 100.086 239.48 100.112 239.342 100.139C239.343 100.168 239.335 100.197 239.32 100.223C239.305 100.249 239.282 100.269 239.256 100.283C233.894 102.854 229.662 106.996 224.898 110.4C225.458 110.219 226.045 110.019 226.613 109.877C227.127 109.596 227.639 109.324 228.163 109.069C230.405 107.443 232.812 106.044 235.345 104.892C236.848 103.301 238.308 101.686 239.757 100.065ZM236.288 104.446C240.054 102.848 244.042 101.802 248.122 101.34C245.716 100.177 243.014 99.7099 240.338 99.9945C239.002 101.486 237.664 102.981 236.288 104.446ZM223.222 113.273C224.224 112.269 225.28 111.315 226.384 110.416C224.682 111.381 223.063 112.479 221.544 113.699C222.099 113.545 222.661 113.404 223.222 113.273ZM230.175 108.133C231.181 107.708 232.181 107.328 233.22 107C233.687 106.549 234.152 106.093 234.608 105.626C233.078 106.371 231.597 107.209 230.175 108.133ZM227.526 110.017C226.261 110.985 225.055 112.023 223.914 113.127C224.494 113.007 225.072 112.89 225.642 112.789C226.609 112.223 227.619 111.646 228.66 111.136C229.343 110.579 229.991 110.012 230.611 109.459C229.571 109.586 228.54 109.771 227.523 110.015L227.526 110.017ZM220.58 113.994C222.002 112.793 223.516 111.699 225.109 110.721C224.579 110.918 224.057 111.121 223.542 111.327C222.89 111.763 222.226 112.187 221.547 112.583C221.002 113.123 220.459 113.66 219.925 114.206L220.58 113.994ZM227.59 107.042C226.032 108.351 224.527 109.708 223.058 111.106L223.373 110.97C228.431 107.602 232.755 103.22 238.191 100.38L238.103 100.4C234.052 101.539 230.677 104.455 227.581 107.057L227.59 107.042ZM248.741 101.642C244.19 102.096 239.747 103.286 235.597 105.161C235.079 105.697 234.562 106.224 234.031 106.757C240.187 104.935 246.724 104.715 252.987 106.118C253.01 106.131 253.025 106.14 253.044 106.15C252.519 104.746 251.573 103.528 250.326 102.652C249.818 102.287 249.286 101.954 248.732 101.657L248.741 101.642ZM253.108 106.359C253.094 106.402 253.063 106.437 253.023 106.459C252.983 106.48 252.936 106.486 252.891 106.475C246.467 105.032 239.755 105.317 233.477 107.302C232.903 107.856 232.316 108.397 231.724 108.931C238.256 108.374 244.987 109.882 251.309 112.06C252.16 111.394 252.785 110.496 253.104 109.482C253.423 108.468 253.422 107.385 253.099 106.374L253.108 106.359ZM227.789 112.497C230.544 112.276 233.316 112.351 236.052 112.722C240.238 113.201 244.791 114.864 248.923 113.384C249.644 113.129 250.324 112.775 250.942 112.334C244.574 110.165 237.794 108.689 231.228 109.37C230.762 109.777 230.289 110.179 229.815 110.556C231.007 109.996 232.28 109.613 233.589 109.421C237.027 109.002 240.492 111.588 243.035 113.466C243.233 113.611 243.032 113.958 242.839 113.796C239.512 111.336 235.987 108.973 231.668 110.417C230.401 110.856 229.17 111.386 227.986 112.004C227.743 112.19 227.49 112.375 227.231 112.571C227.407 112.566 227.587 112.528 227.78 112.512L227.789 112.497Z" fill="#C08A00"/>
<path d="M203.654 73.5357C206.742 72.2975 210.138 72.8978 212.81 74.7391C216.629 77.3704 217.96 81.1649 218.545 85.5013C220.069 96.6056 213.515 106.463 208.861 116.102C208.849 116.128 208.834 116.153 208.817 116.177C209.003 118.495 210.16 118.525 210.299 120.836C210.349 121.69 207.972 123.983 207.913 123.134C207.179 110.816 205.873 99.1758 200.122 88.0294C197.41 82.7798 196.922 76.214 203.654 73.5357ZM212.446 76.0926C214.198 82.3818 213.095 88.9218 212.449 95.3079C212.083 98.9536 212.252 103.631 210.943 107.46C210.792 108.384 210.587 109.299 210.327 110.2C210.529 109.819 210.718 109.46 210.911 109.084C212.156 105.5 212.484 101.56 213.391 97.9109C214.454 93.6418 215.795 89.4441 217.139 85.2485C216.641 81.722 215.333 78.2567 212.442 76.1001L212.446 76.0926ZM217.271 86.1722C215.876 90.5279 214.505 94.8963 213.461 99.339C212.84 101.987 212.493 104.729 211.836 107.327C214.866 101.386 217.575 95.2155 217.431 88.6348C217.413 87.8287 217.361 87.0035 217.271 86.1722ZM209.356 112.104C209.667 111.155 209.946 110.2 210.173 109.239C210.102 109.358 210.029 109.48 209.952 109.61C209.842 110.392 209.527 111.135 209.038 111.767C209.007 111.819 208.978 111.868 208.95 111.916C208.933 111.945 208.908 111.968 208.877 111.983C208.847 111.997 208.812 112.003 208.779 111.998C208.742 112.031 208.703 112.062 208.662 112.091C208.598 112.317 208.531 112.542 208.466 112.762C208.494 113.04 208.525 113.319 208.551 113.601C208.841 113.106 209.098 112.606 209.356 112.104ZM208.422 111.615L208.433 111.597C208.43 111.603 208.426 111.61 208.422 111.615ZM208.68 110.771C208.945 109.832 209.203 108.869 209.45 107.89C209.381 107.099 209.228 106.316 208.995 105.555C208.673 106.314 208.309 107.056 207.905 107.777C208.07 108.901 208.214 110.028 208.338 111.158C208.449 111.048 208.562 110.918 208.674 110.782L208.68 110.771ZM208.813 104.973C208.188 103.256 207.386 101.605 206.418 100.045C207.002 102.378 207.455 104.742 207.801 107.116C208.175 106.423 208.51 105.712 208.806 104.984L208.813 104.973ZM205.639 97.1863C205.796 97.6994 205.921 98.2145 206.063 98.7286C207.245 100.53 208.238 102.441 209.026 104.435C209.445 103.326 209.77 102.185 210 101.025C209.882 100.702 209.744 100.388 209.595 100.057C208.055 96.8279 205.779 93.8938 203.283 91.2364C204.218 93.1634 205.003 95.156 205.632 97.1975L205.639 97.1863ZM209.224 104.991C209.429 105.599 209.589 106.22 209.703 106.851C209.771 106.567 209.838 106.283 209.912 105.979C210.179 104.26 210.36 102.769 210.363 102.583C210.367 102.398 210.36 102.349 210.362 102.236C210.363 102.123 210.287 101.918 210.241 101.764C209.985 102.867 209.643 103.949 209.218 105.002L209.224 104.991ZM210.596 104.661C210.537 105.221 210.47 105.787 210.381 106.345C210.292 106.904 210.253 107.618 210.19 108.374C210.307 108.108 210.421 107.84 210.521 107.57C210.697 106.494 210.751 105.403 210.685 104.315C210.642 104.43 210.614 104.553 210.589 104.672L210.596 104.661ZM201.314 87.3614C201.787 88.274 202.256 89.194 202.719 90.1251C205.663 93.0975 208.543 96.5721 210.126 100.335C210.157 100.155 210.181 99.9701 210.206 99.7914C209.914 97.6198 209.289 95.5038 208.35 93.5136C206.1 88.6411 202.893 84.1032 199.699 79.7748C199.553 79.5748 199.893 79.3891 200.037 79.5833C204.119 85.076 208.961 91.3691 210.375 98.1661C210.861 90.4004 207.239 82.7087 202.241 76.2591C202.091 76.0665 202.435 75.8734 202.576 76.0713C207.955 83.0352 211.717 91.3541 210.622 99.6983C210.704 100.422 210.748 101.149 210.753 101.877C212.443 92.2102 212.177 81.8293 205.722 74.6677C205.555 74.4857 205.824 74.2308 205.997 74.4017C212.778 81.923 212.847 92.881 210.955 102.939C211.107 103.801 211.167 104.676 211.134 105.55C212.178 101.236 211.996 96.1464 212.369 92.4704C212.94 86.8583 213.626 81.3103 212 75.8084C212 75.8084 212.016 75.7825 212.024 75.7676C211.6 75.4855 211.154 75.2357 210.689 75.0205C209.007 74.2181 207.084 74.0211 205.263 74.4645C203.442 74.9078 201.84 75.9629 200.742 77.4423C198.301 80.8066 199.612 84.0863 201.307 87.3726L201.314 87.3614Z" fill="#C08A00"/>
<path d="M226.234 92.8981C231.887 86.9266 238.254 81.498 244.549 76.1726C248.984 72.4162 258.013 67.3945 261.421 75.2331C264.223 81.7145 257.839 87.5638 251.671 88.5608C245.152 89.6336 238.161 87.9213 231.744 89.5654C231.659 89.585 231.57 89.589 231.483 89.5773C230.025 90.966 226.657 95.7149 225.275 97.1713C224.661 97.8013 225.639 93.5293 226.234 92.8981ZM240.537 81.3965C238.954 82.7896 237.352 84.1816 235.784 85.5928C236.476 85.2746 237.218 85.0714 237.978 84.9917C238.175 84.8401 238.373 84.6884 238.574 84.5389C240.365 82.7559 242.318 81.1323 244.408 79.6874C245.987 78.02 247.468 76.2588 248.948 74.4918C248.399 74.8123 247.871 75.1655 247.367 75.5496C245.016 77.3876 242.793 79.4361 240.537 81.3965ZM235.409 87.6817L235.729 87.6578C235.827 87.5446 235.923 87.4255 236.015 87.3234C236 87.2959 235.993 87.2649 235.995 87.2338C235.998 87.2028 236.009 87.173 236.028 87.1478C235.996 87.1692 235.964 87.1891 235.931 87.2074C235.773 87.3613 235.599 87.5258 235.421 87.6882L235.409 87.6817ZM251.374 87.0104C248.842 85.6679 245.397 83.9971 242.415 84.6817C241.872 84.8131 241.342 84.9893 240.83 85.2083C242.516 85.6355 244.069 86.4521 245.358 87.5887C247.375 87.544 249.386 87.3507 251.374 87.0104ZM239.523 85.3617C239.268 85.3398 239.012 85.3303 238.756 85.3333C238.523 85.5039 238.29 85.6804 238.051 85.843C237.708 86.1454 237.391 86.4129 237.068 86.7069C236.926 86.8694 236.775 87.0371 236.641 87.1847C237.513 86.5643 238.421 85.9928 239.36 85.4731C239.422 85.4288 239.473 85.3934 239.527 85.3543L239.523 85.3617ZM241.443 82.6251C241.866 82.239 242.284 81.8451 242.7 81.4453C242.01 81.9783 241.34 82.5329 240.692 83.1092C240.941 82.9376 241.182 82.7903 241.447 82.6176L241.443 82.6251ZM249.855 74.0203C248.514 75.6477 247.16 77.2628 245.749 78.821C249.595 76.3872 253.818 74.5661 258.255 73.4268C256.033 71.9812 252.671 72.6057 249.859 74.0129L249.855 74.0203ZM258.653 73.7141C253.635 74.9667 248.893 77.0972 244.659 80.0008C244.09 80.6065 243.501 81.2016 242.902 81.7807C248.282 78.8445 254.322 77.2395 260.487 77.1079C260.305 75.8007 259.658 74.5975 258.658 73.7067L258.653 73.7141ZM260.575 77.5921L260.554 77.4817C254.632 77.6026 248.822 79.0971 243.609 81.8403C244.466 81.4638 245.351 81.1511 246.257 80.9047C250.832 79.6883 255.896 79.9814 260.605 79.8728C260.692 79.1117 260.684 78.3433 260.579 77.5847L260.575 77.5921ZM260.561 80.2632C256.248 80.3561 251.691 80.159 247.474 81.0126C244.876 81.5707 242.421 82.6399 240.262 84.1543C239.929 84.4323 239.588 84.706 239.26 84.9825C239.514 84.9961 239.767 85.0221 240.018 85.0603C242.005 83.7995 244.173 82.7887 246.444 82.4776C250.249 81.957 254.628 83.3744 258.295 84.2202C259.51 83.1983 260.31 81.7892 260.55 80.2473L260.561 80.2632ZM257.896 84.506C254.475 83.7088 250.542 82.566 247.068 82.8314C245.264 83.012 243.517 83.5482 241.933 84.4069C242.331 84.2944 242.737 84.2144 243.149 84.1677C246.027 83.8702 249.174 85.4089 251.614 86.7098C251.636 86.7202 251.656 86.7351 251.672 86.7536C251.688 86.7722 251.699 86.7939 251.706 86.8172C251.712 86.8406 251.713 86.865 251.709 86.8888C251.705 86.9126 251.695 86.9353 251.681 86.9552C254.008 86.5073 256.251 85.7557 257.9 84.4986L257.896 84.506ZM244.774 87.6033C243.478 86.5333 241.925 85.7967 240.257 85.4611C240.027 85.5745 239.788 85.6931 239.549 85.7964C238.695 86.3763 237.871 86.9828 237.101 87.6001C239.542 87.5325 242.017 87.6375 244.354 87.6004L244.774 87.6033ZM234.01 87.828C234.591 87.5366 235.16 87.2272 235.717 86.9C236.26 86.4078 236.806 85.9272 237.389 85.4775C235.929 85.7823 234.62 86.5616 233.677 87.6863C233.653 87.7167 233.617 87.7369 233.578 87.7425C233.539 87.7481 233.499 87.7387 233.466 87.7164L233.231 87.9311C233.495 87.881 233.756 87.8537 234.014 87.8205L234.01 87.828Z" fill="#C08A00"/>
<path d="M218.515 46.4292C225.528 48.0699 228.383 56.4002 228.807 62.4506C229.612 73.6863 231.213 76.0951 230.768 80.7541C230.687 81.5986 228.184 84.6719 228.265 83.8025C228.483 81.0915 228.558 78.3718 228.49 75.654C228.379 75.5949 228.289 75.5032 228.234 75.3921C224.156 67.2622 213.309 64.6281 210.031 56.0859C207.823 50.3323 212.064 44.9202 218.515 46.4292ZM218.091 58.3768C219.256 59.2464 220.358 60.1931 221.388 61.2102C222.206 62.014 222.957 62.8447 223.722 63.7221C223.573 62.7591 223.457 61.7846 223.39 60.8032L223.289 60.4946C221.512 55.195 219.377 49.1312 212.898 48.1899C212.541 48.4336 212.223 48.7267 211.953 49.0598C215.342 51.1145 216.284 54.8101 217.984 58.1388L218.091 58.3768ZM226.71 70.7873L226.623 70.5313C226.197 70.1083 225.791 69.6883 225.406 69.2714C225.432 69.3458 225.447 69.4233 225.47 69.4955C225.898 69.9129 226.31 70.3408 226.71 70.7873ZM228.263 70.3317C227.799 69.6765 227.331 69.0191 226.855 68.3671C227.323 69.7068 227.853 71.0366 228.383 72.376C228.351 71.6957 228.311 71.0142 228.263 70.3317ZM227.962 72.3577C227.431 71.0719 226.884 69.7776 226.42 68.44L227.441 71.6609C227.62 71.8896 227.791 72.1236 227.962 72.3577ZM226.339 69.6851L225.137 66.0762C224.912 65.7874 224.691 65.5007 224.465 65.206C224.644 66.289 224.879 67.3624 225.169 68.4222C225.546 68.8559 225.939 69.2731 226.339 69.6851ZM224.788 65.0404L224.176 63.2153C224.228 63.6399 224.274 64.0662 224.336 64.4914L224.788 65.0404ZM223.824 64.4468C222.426 62.737 220.868 61.1568 219.169 59.7264C218.974 59.5677 218.774 59.4163 218.572 59.2687C220.244 62.2997 222.249 65.1456 224.553 67.7564C224.259 66.6624 224.016 65.5592 223.824 64.4468ZM213.398 47.906C217.934 48.744 220.549 52.2533 222.221 56.303C222.595 57.2195 222.951 58.1503 223.299 59.0864C223.179 55.5049 223.183 51.8097 220.732 49.0936C218.419 47.6562 215.531 46.8606 213.398 47.906ZM221.778 49.8472C222.933 51.5807 223.414 53.6341 223.587 55.8367C223.721 57.5675 223.816 59.252 223.952 60.9196C224.568 62.6684 225.148 64.4361 225.711 66.2049C225.474 65.3429 225.301 64.465 225.196 63.5783C224.777 60.0122 225.421 56.4974 224.473 53.0008C224.259 52.634 224.037 52.2629 223.79 51.9172C223.23 51.1332 222.552 50.4354 221.778 49.8472ZM225.164 54.3168C225.58 56.769 225.415 59.2321 225.485 61.7528C225.562 63.6065 225.894 65.4413 226.472 67.2086C227.064 67.9995 227.641 68.7973 228.213 69.5966L228.15 68.7113C227.781 63.9521 227.3 58.7399 225.164 54.3168ZM220.614 65.4384C219.783 63.9493 218.779 62.5581 217.621 61.2921C216.117 59.7188 214.255 58.6522 212.313 57.6845C213.387 59.2261 214.66 60.6277 216.1 61.855C217.565 63.1194 219.101 64.2805 220.614 65.4384ZM211.938 57.0688C216.36 59.267 218.954 61.9835 221.386 66.0287C222.604 66.9723 223.809 67.9382 224.91 68.9594C224.873 68.85 224.843 68.739 224.812 68.628C222.825 66.4639 221.047 64.1271 219.5 61.6467C218.97 60.7666 218.493 59.8574 218.07 58.9238C215.691 57.3504 212.677 56.2466 210.782 54.2274C211.01 55.2283 211.4 56.1873 211.938 57.0688ZM210.934 51.0697C210.683 51.8568 210.6 52.6849 210.689 53.5034C212.223 55.4291 214.779 56.1674 216.807 57.4754C217.114 57.677 217.411 57.8875 217.708 58.0981C216.199 54.7822 214.704 51.1873 211.736 49.3981C211.379 49.9096 211.102 50.4692 210.914 51.059L210.934 51.0697Z" fill="#C08A00"/>
<path d="M218.919 24.8566C223.845 22.146 228.248 27.2545 230.274 30.9583C233.409 36.7016 234.319 42.7721 234.909 49.1674C234.919 49.2763 234.897 49.3857 234.848 49.484C235.911 51.2257 236.691 53.1448 236.615 55.1588C236.581 56.0098 234.991 58.5161 235.027 57.6614C235.17 53.8111 232.208 47.8285 229.802 45.1726C226.867 41.9286 223.359 39.5354 220.133 36.6428C216.995 33.8243 213.865 27.6289 218.919 24.8566ZM220.114 34.8037L220.756 35.4345C222.805 36.6896 224.785 38.0484 226.688 39.5052C226.001 38.4635 225.315 37.4218 224.642 36.3829L224.06 35.4296C222.133 33.9698 220.089 32.6609 217.948 31.5154C217.934 31.5077 217.921 31.4974 217.911 31.485C217.901 31.4725 217.894 31.4583 217.89 31.4431C218.381 32.701 219.141 33.8436 220.119 34.7962L220.114 34.8037ZM231.668 45.2926L231.69 45.2555C231.462 44.7173 231.229 44.1769 231.013 43.6355C230.181 42.8738 229.33 42.1318 228.458 41.4099C228.907 42.0815 229.367 42.7441 229.813 43.404C230.438 43.9943 231.051 44.6178 231.654 45.2745L231.668 45.2926ZM233.061 44.5595C233.033 44.551 233.007 44.5364 232.985 44.5168C232.705 44.1328 232.414 43.7673 232.105 43.3817C232.105 43.5599 232.098 43.7435 232.098 43.9218L232.255 44.2815C232.552 44.561 232.84 44.8458 233.132 45.1328L233.061 44.5595ZM220.383 25.7548C222.905 27.2299 225.189 29.0561 227.164 31.1755C226.252 28.7869 224.815 26.7766 221.818 25.6337C221.332 25.5932 220.843 25.628 220.368 25.7368L220.383 25.7548ZM219.892 25.9204C219.143 26.2295 218.535 26.7923 218.181 27.5036C222.855 29.4516 226.378 33.5188 229.076 38.0488C228.941 37.5676 228.793 37.0896 228.668 36.5995C228.267 35.0355 227.934 33.4946 227.467 32.0573C225.307 29.6103 222.745 27.527 219.884 25.8912L219.892 25.9204ZM230.452 40.5041L230.815 41.2015C231.119 41.5447 231.401 41.8655 231.681 42.2055C231.561 39.5382 231.018 36.9407 229.456 34.5936C229.133 34.1113 228.774 33.6289 228.394 33.1491C229.123 35.579 229.738 38.0483 230.437 40.486L230.452 40.5041ZM231.526 43.5766L231.246 42.9703L231.442 43.4952L231.526 43.5766ZM231.468 42.5556L231.684 43.0471C231.684 42.9781 231.678 42.9107 231.675 42.8396C231.607 42.7322 231.536 42.6285 231.455 42.5337L231.468 42.5556ZM233.204 45.7368L232.657 45.2034C232.888 45.7475 233.113 46.2836 233.322 46.8112L233.204 45.7368ZM232.076 44.8386L232.063 45.1676C232.161 45.4051 232.252 45.6441 232.354 45.8837C232.367 45.9118 232.372 45.9425 232.37 45.9731C232.368 46.0037 232.358 46.0333 232.341 46.0593C232.516 46.261 232.682 46.4679 232.849 46.6749C232.593 46.0571 232.331 45.4378 232.064 44.8168L232.076 44.8386ZM227.352 40.5245C225.71 39.2251 224.013 37.9934 222.247 36.8422C224.302 38.6942 226.459 40.3853 228.515 42.2182C228.112 41.6317 227.719 41.0706 227.34 40.5027L227.352 40.5245ZM227.758 40.356C228.758 41.153 229.735 41.98 230.69 42.837C230.432 42.1591 230.181 41.4796 229.944 40.7933C228.459 39.1659 226.849 37.6502 225.127 36.2592C225.988 37.606 226.862 38.9746 227.745 40.3342L227.758 40.356ZM229.66 39.9376L229.589 39.7246C226.811 34.6706 223.081 29.9436 218.012 27.8485C217.95 27.9523 217.927 28.0928 217.887 28.219C220.097 29.1042 221.555 30.7113 222.886 32.7558C223.414 33.5757 223.939 34.403 224.463 35.2303C226.315 36.6566 228.047 38.2225 229.644 39.9136L229.66 39.9376ZM230.393 34.2082C229.238 31.6294 227.803 28.6417 225.432 26.9441C224.784 26.4851 224.064 26.1318 223.298 25.8984C225.363 26.9714 226.924 28.7717 227.661 30.9298C227.812 31.3601 227.952 31.7898 228.093 32.2195C228.696 32.9222 229.261 33.6544 229.787 34.4132C231.518 36.9386 232.022 39.8061 232.091 42.7311C232.379 43.1002 232.666 43.4731 232.948 43.8534C232.551 40.5313 231.687 37.2787 230.38 34.1864L230.393 34.2082ZM217.64 29.4201C217.59 30.065 217.673 30.7127 217.883 31.3258C217.882 31.293 217.89 31.2604 217.905 31.2315C217.921 31.2025 217.945 31.1783 217.974 31.1611C218.003 31.144 218.036 31.1347 218.07 31.1342C218.103 31.1336 218.137 31.1418 218.166 31.1579C220.048 32.1734 221.854 33.3161 223.571 34.5775C222.092 32.124 220.527 29.7307 217.771 28.5938C217.708 28.8592 217.66 29.1278 217.627 29.3983L217.64 29.4201Z" fill="#C08A00"/>
<path d="M240.798 58.152C242.768 55.0924 244.621 51.3936 247.345 48.8696C249.831 46.5832 256.487 43.2737 259.377 46.7049C262.516 50.4684 258.968 56.911 255.12 58.6922C250.003 61.0584 243.962 61.0296 238.897 63.7859C238.897 63.7859 238.855 63.7969 238.834 63.8054C237.704 65.6441 236.575 67.5135 235.502 69.3996C235.06 70.1411 233.907 67.9534 234.341 67.2077C236.374 63.6245 238.549 61.6385 240.798 58.152ZM240.943 61.2481C241.491 60.8961 242.039 60.5256 242.587 60.1364C242.891 59.6248 243.196 59.1132 243.501 58.6016C242.95 58.8733 242.422 59.188 241.923 59.5427C241.576 60.0966 241.249 60.665 240.943 61.2481ZM242.059 60.963L242.099 60.9462L242.112 60.9239C242.112 60.9239 242.075 60.9525 242.059 60.963ZM243.048 57.9183C242.842 58.1882 242.65 58.4668 242.459 58.7453C242.913 58.4721 243.385 58.2276 243.872 58.0133C244.17 57.5128 244.468 57.0123 244.789 56.5496C244.175 56.9638 243.593 57.4212 243.048 57.9183ZM245.286 55.7844C245.578 55.3449 245.877 54.9039 246.178 54.4745C245.484 55.1098 244.828 55.7819 244.211 56.4878C244.564 56.237 244.922 56.0026 245.286 55.7844ZM244.48 57.7605C245.215 57.4756 245.967 57.2363 246.733 57.0439C248.159 55.9485 249.59 54.8611 251.062 53.8411C249.125 54.3112 247.272 55.06 245.563 56.0628C245.196 56.6188 244.832 57.1864 244.48 57.7605ZM244.153 58.3092C243.901 58.7318 243.65 59.1545 243.398 59.5771C244.276 58.9564 245.117 58.3048 245.968 57.6538C245.341 57.8296 244.726 58.0435 244.126 58.2942L244.153 58.3092ZM250.831 48.0376C247.819 49.6787 246.145 52.4888 244.338 55.2242C243.786 56.0571 243.241 56.8943 242.697 57.7315C242.706 57.7121 242.717 57.6935 242.73 57.6759C244.011 55.9675 245.512 54.4254 247.198 53.0875C249.178 50.5479 251.507 48.3215 254.554 46.7839C253.241 46.9678 251.975 47.3918 250.824 48.0333L250.831 48.0376ZM255.336 46.7424C255.338 46.7712 255.331 46.7998 255.316 46.8248C255.301 46.8498 255.279 46.8701 255.252 46.8833C252.639 48.148 250.338 49.9461 248.506 52.1541C251.443 50.1077 254.789 48.6825 258.327 47.9713C257.961 47.5535 257.5 47.2245 256.979 47.0104C256.459 46.7964 255.893 46.7032 255.329 46.7381L255.336 46.7424ZM258.914 49.0014C258.818 48.7577 258.696 48.5241 258.551 48.3041C254.49 49.0958 250.687 50.841 247.477 53.3872C246.981 54.0239 246.507 54.683 246.046 55.3544C247.893 54.3882 249.873 53.6835 251.926 53.2618C254.105 51.7702 256.484 50.5768 258.997 49.7154C259.036 49.7041 259.078 49.7079 259.113 49.7259C259.069 49.477 259 49.2329 258.907 48.9972L258.914 49.0014ZM259.155 50.0311C259.142 50.0533 259.131 50.0719 259.095 50.0813C256.916 50.8164 254.841 51.8138 252.917 53.0501C254.877 52.709 256.862 52.5174 258.853 52.4768C259.134 51.6903 259.234 50.8542 259.148 50.0268L259.155 50.0311ZM258.694 52.8722C256.467 52.9215 254.249 53.1695 252.068 53.613C250.547 54.6206 249.08 55.7174 247.609 56.8276C250.528 56.1969 253.645 56.0031 256.383 55.6325C256.418 55.6277 256.453 55.6315 256.486 55.6434C256.519 55.6553 256.549 55.675 256.572 55.7006C256.595 55.7263 256.611 55.7571 256.619 55.7904C256.626 55.8236 256.625 55.8583 256.616 55.8911C257.498 55.0206 258.201 53.9943 258.686 52.8679L258.694 52.8722ZM249.368 58.8697C250.902 58.4724 252.632 58.2243 254.101 57.6527C255.018 57.26 255.846 56.6949 256.536 55.9901L256.521 56.016C253.549 56.4194 250.073 56.5945 246.93 57.3964C245.604 58.4189 244.273 59.4393 242.909 60.4059L242.688 60.7767C244.866 60.0078 247.145 59.4346 249.376 58.874L249.368 58.8697ZM240.29 61.669C240.484 61.2833 240.686 60.9019 240.899 60.5269C240.659 60.931 240.389 61.3239 240.137 61.7216L240.29 61.669Z" fill="#C08A00"/>
<path d="M239.721 41.7217C240.638 36.4513 243.487 31.3432 246.798 27.1353C248.875 24.5016 252.702 20.0587 256.653 20.4014C262.009 20.8721 261.067 27.4137 258.556 30.2106C256.163 32.8703 252.562 34.3743 249.482 36.1208C247.249 37.3291 245.139 38.7406 243.181 40.3361C243.102 40.4696 243.049 40.618 242.991 40.7585C242.932 40.8989 242.769 40.8665 242.686 40.766C241.183 42.1196 239.885 46.4156 238.864 48.2663C238.449 49.0227 237.249 45.6075 237.661 44.8548C238.246 43.7968 238.938 42.7981 239.727 41.8735C239.719 41.8233 239.717 41.7724 239.721 41.7217ZM257.71 22.6238C252.276 26.4957 247.818 31.5148 244.674 37.301C247.128 34.8743 249.898 32.7683 252.912 31.0363C255.077 28.7238 257.002 26.209 258.656 23.5288C258.411 23.1792 258.095 22.8815 257.728 22.6535L257.71 22.6238ZM243.604 38.2596L243.81 38.1027C243.947 37.8728 244.057 37.628 244.184 37.3976C243.991 37.7048 243.799 37.9928 243.607 38.2808L243.604 38.2596ZM257.341 22.4225C256.854 22.2055 256.325 22.0898 255.789 22.0828C254.22 23.9431 252.692 25.8281 251.205 27.7378C253.084 25.7988 255.139 24.027 257.344 22.4438L257.341 22.4225ZM245.867 36.6983C246.466 36.3185 247.077 35.9452 247.699 35.5782C247.88 35.4716 248.065 35.3729 248.252 35.2648C249.252 34.4402 250.277 33.6247 251.224 32.7262C251.434 32.5274 251.636 32.3242 251.84 32.127C249.704 33.4699 247.705 35.0078 245.87 36.7195L245.867 36.6983ZM241.706 39.8072C241.689 39.7821 241.68 39.7529 241.68 39.723C241.68 39.6932 241.688 39.6639 241.705 39.6385C245.142 34.2265 248.581 28.8153 252.021 23.4047C250.28 24.6201 248.733 26.5079 247.458 28.3154C245.832 31.8039 244.003 35.1999 241.979 38.4868C241.811 38.9813 241.66 39.4749 241.52 39.9748C241.576 39.957 241.635 39.9009 241.7 39.8433L241.706 39.8072ZM242.767 36.4464C243.882 34.5398 244.935 32.5995 245.924 30.6256C245.792 30.848 245.666 31.0593 245.544 31.2632C244.481 32.9388 243.548 34.6883 242.752 36.4973L242.767 36.4464ZM252.797 22.8952L242.494 39.1162L242.665 38.9746C246.532 33.1063 250.745 27.4593 255.283 22.0616C254.945 22.0912 254.61 22.1523 254.284 22.2441C253.756 22.4184 253.252 22.6541 252.782 22.9461L252.797 22.8952ZM259.125 26.6435C259.416 25.7184 259.338 24.7218 258.906 23.8517C257.471 26.1594 255.838 28.3462 254.025 30.3887C255.374 29.6608 256.804 28.9777 258.302 28.333C258.657 27.8306 258.93 27.2778 259.11 26.6943L259.125 26.6435ZM254.695 31.5789C255.871 30.8553 256.934 29.9694 257.848 28.9491C256.254 29.6453 254.7 30.4261 253.194 31.2881C252.977 31.5172 252.759 31.7463 252.537 31.9732C251.728 32.7856 250.87 33.5417 249.997 34.2738C251.57 33.4686 253.172 32.6151 254.68 31.6298L254.695 31.5789Z" fill="#C08A00"/>
<path d="M239.239 17.394C239.234 12.7399 243.836 -4.59078 251.919 1.75146C255.041 4.19535 252.885 7.88265 250.628 10.0059C246.606 13.7955 239.363 16.6478 238.472 22.7285C238.349 23.5744 237.032 23.2327 237.144 22.3958C237.441 20.6822 238.184 19.0698 239.304 17.712C239.255 17.6129 239.233 17.5036 239.239 17.394ZM246.239 3.19998C244.232 6.5699 242.376 9.98488 241.516 13.7845C241.896 13.3966 242.297 13.0286 242.717 12.6821C243.158 12.0441 243.584 11.3975 244.017 10.7553C244.017 10.7553 244.008 10.7107 244.024 10.6847C245.536 8.25779 246.531 5.56103 246.947 2.75548C246.701 2.89478 246.464 3.04417 246.239 3.19998ZM241.631 14.2147C241.54 14.3168 241.452 14.4211 241.365 14.5253L241.343 14.6218L241.631 14.2147ZM240.671 15.5706C240.77 15.4037 240.894 15.2555 241.009 15.0973C240.981 15.0869 240.955 15.0725 240.932 15.0546C240.862 15.1732 240.766 15.2732 240.677 15.4061L240.671 15.5706ZM240.761 14.6327C240.825 14.5252 240.925 14.4427 241.006 14.3496C241.739 10.558 243.472 7.18778 245.408 3.85212C245.214 4.02438 245.031 4.20713 244.858 4.39954C242.439 7.18818 241.173 10.9627 240.759 14.6364L240.761 14.6327ZM247.374 2.51539C247.127 4.34795 246.638 6.14249 245.918 7.8546C247.173 5.90221 248.387 3.93221 249.56 1.92916C248.791 1.95682 248.04 2.16157 247.368 2.52652L247.374 2.51539ZM249.984 1.9687C248.079 5.24291 246.053 8.43922 243.928 11.5801C243.974 11.5022 244.049 11.4452 244.114 11.378C246.614 8.77796 249.792 7.02165 251.902 4.06011C251.877 3.88688 251.836 3.71636 251.778 3.55086C251.653 3.155 251.419 2.79981 251.102 2.52312C250.785 2.24643 250.396 2.05867 249.977 1.97984L249.984 1.9687ZM251.945 4.65297C250.349 6.72578 248.277 8.18102 246.284 9.88803C245.829 10.2761 245.404 10.6812 244.983 11.0979C246.754 10.0126 248.677 9.10664 250.483 8.1748C251.238 7.19821 251.921 5.88977 251.939 4.6641L251.945 4.65297ZM246.51 11.4382C247.623 10.7142 248.683 9.91443 249.68 9.04506L249.756 8.96891C247.683 9.93528 245.692 11.0592 243.801 12.33C242.874 13.3796 242.012 14.4818 241.22 15.6306C242.87 14.1092 244.636 12.7115 246.503 11.4493L246.51 11.4382Z" fill="#C08A00"/>
<path d="M217.429 9.89591C219.756 7.792 223.569 8.51199 226.003 9.96781C231.042 12.9755 232.491 19.2186 234.739 24.1196C235.821 25.1251 236.823 26.2081 237.738 27.3596C238.266 28.0261 237.291 28.9633 236.762 28.2967C235.855 27.1519 234.858 26.0767 233.78 25.0807C233.746 25.0532 233.715 25.0225 233.687 24.9892C231.803 23.274 229.714 21.7847 227.464 20.553C224.718 19.0161 221.59 17.948 219.112 16.0028C217.091 14.4422 215.034 12.0649 217.429 9.89591ZM218.678 14.1783C222.048 15.471 224.882 17.6895 228.074 19.3324C228.097 19.3452 228.109 19.3516 228.128 19.3622L228.147 19.3729C228.402 19.5159 228.654 19.6568 228.91 19.7998C225.624 16.9729 222.191 14.4038 217.987 13.0156C218.145 13.4396 218.379 13.8332 218.678 14.1783ZM230.859 21.0536C231.382 21.4055 231.886 21.7716 232.387 22.151C232.244 22.0067 232.103 21.8683 231.966 21.7225C231.937 21.7198 231.909 21.7111 231.884 21.6971C231.859 21.6831 231.838 21.6641 231.821 21.6414L231.596 21.318C230.06 19.6279 228.734 17.7888 227.108 16.1817C224.612 13.722 221.363 12.1119 217.844 11.591C217.757 11.9224 217.752 12.2692 217.832 12.6023C222.956 14.229 226.962 17.5629 230.878 21.0642L230.859 21.0536ZM231.076 18.9212C227.78 15.7025 225.506 12.0478 221.381 9.95678C221.022 9.96291 220.664 9.99369 220.309 10.0489C225.4 12.3292 228.755 16.6189 231.904 21.0749L232.074 21.2591C231.756 20.478 231.436 19.7007 231.095 18.9318L231.076 18.9212ZM219.665 10.1731C218.998 10.3092 218.41 10.6869 218.019 11.2291C220.92 11.6666 223.653 12.8279 225.95 14.5994C226.551 15.0852 227.12 15.6081 227.652 16.1649C225.437 13.675 222.939 11.5255 219.684 10.1838L219.665 10.1731ZM222.852 10.083L222.662 10.0511C225.849 12.0962 227.961 15.1417 230.626 17.9179C230.032 16.6333 229.316 15.4053 228.488 14.2498C227.126 12.3512 225.286 10.6246 222.871 10.0937L222.852 10.083ZM224.681 17.8141C222.985 16.7043 221.21 15.7114 219.371 14.8427C220.758 16.0394 222.815 17.0021 224.7 17.8247L224.681 17.8141Z" fill="#C08A00"/>
</svg>
